<svg width="17" height="14" viewBox="0 0 17 14" fill="none" xmlns="http://www.w3.org/2000/svg">
<path fill-rule="evenodd" clip-rule="evenodd" d="M11.9741 2.47059H14C15.3645 2.47059 16.4706 3.57671 16.4706 4.94118V11.5294C16.4706 12.8939 15.3645 14 14 14H2.47059C1.10612 14 0 12.8939 0 11.5294V4.94118C0 3.57671 1.10612 2.47059 2.47059 2.47059H4.49647L5.41059 1.10353C5.86865 0.413994 6.6416 -0.000308736 7.46941 1.72623e-07H9.00118C9.82899 -0.000308736 10.6019 0.413994 11.06 1.10353L11.9741 2.47059ZM4.94114 8.23526C4.94114 10.0545 6.41597 11.5294 8.23526 11.5294C9.10891 11.5294 9.94678 11.1823 10.5646 10.5646C11.1823 9.94678 11.5294 9.10891 11.5294 8.23526C11.5294 6.41597 10.0545 4.94114 8.23526 4.94114C6.41597 4.94114 4.94114 6.41597 4.94114 8.23526Z" fill="white"/>
</svg>
