<svg width="23" height="23" viewBox="0 0 23 23" fill="none" xmlns="http://www.w3.org/2000/svg">
<path fill-rule="evenodd" clip-rule="evenodd" d="M17.3776 1.61065C16.5816 1.30803 15.6786 1.11348 14.6633 1.03783C14.3214 1.01081 13.9643 1 13.602 1H9.44388C6.4949 1 4.34694 1.82681 3.0102 3.48585C1.67857 5.13407 1.0102 7.80365 1 11.5C1.0102 15.1909 1.67857 17.8659 3.0102 19.5142C4.34694 21.1732 6.4949 22 9.44388 22H13.602C13.9643 22 14.3214 21.9892 14.6633 21.9622C15.6786 21.8865 16.5816 21.692 17.3776 21.3893H17.3827C17.5918 21.3083 17.7806 21.2164 17.9745 21.1191H21.1122V17.5147C21.1429 17.4444 21.1684 17.3688 21.1939 17.2985C21.2602 17.1202 21.3163 16.9364 21.3724 16.7473C21.4082 16.6338 21.4337 16.5203 21.4643 16.4068C21.5 16.2826 21.5255 16.1529 21.5561 16.0286C21.602 15.8394 21.6378 15.6503 21.6735 15.4557C21.699 15.326 21.7245 15.1963 21.7449 15.0667C21.7653 14.9261 21.7857 14.791 21.8061 14.6505C21.8367 14.429 21.8622 14.2074 21.8827 13.9804C21.898 13.8453 21.9082 13.7102 21.9184 13.5751C21.9388 13.3157 21.9592 13.0618 21.9694 12.7916C21.9745 12.6943 21.9796 12.5916 21.9796 12.4943C21.9898 12.1971 22 11.8945 22 11.5865V11.5V11.4135C22 11.1055 21.9898 10.8029 21.9796 10.5057C21.9796 10.4084 21.9745 10.3057 21.9694 10.2084C21.9592 9.93824 21.9388 9.68425 21.9184 9.42486C21.9082 9.28976 21.898 9.15466 21.8827 9.01956C21.8622 8.79259 21.8367 8.57102 21.8061 8.34946C21.7857 8.20896 21.7653 8.07386 21.7449 7.93335C21.7245 7.80365 21.699 7.67396 21.6735 7.54426C21.6378 7.34972 21.5969 7.16058 21.5561 6.97144C21.5255 6.84714 21.5 6.71745 21.4643 6.59316C21.4337 6.47967 21.4082 6.36619 21.3724 6.2527C21.3163 6.06356 21.2602 5.87983 21.1939 5.70149C21.1633 5.61503 21.1327 5.52316 21.0969 5.4367C21.0255 5.24756 20.949 5.06382 20.8673 4.89089C20.8418 4.83685 20.8163 4.78821 20.7908 4.73958C20.6939 4.54503 20.5969 4.35049 20.4898 4.17216C20.3418 3.92898 20.1837 3.6966 20.0153 3.48585C19.3418 2.64822 18.4643 2.02676 17.3827 1.61065H17.3776Z" stroke="#797979" stroke-width="0.7"/>
<path d="M7.5269 9.81946H5.59234C5.2567 9.81946 4.98462 10.0915 4.98462 10.4272V12.3617C4.98462 12.6974 5.2567 12.9695 5.59234 12.9695H7.5269C7.86253 12.9695 8.13462 12.6974 8.13462 12.3617V10.4272C8.13462 10.0915 7.86253 9.81946 7.5269 9.81946Z" fill="#797979"/>
<path d="M12.456 9.81946H10.5214C10.1858 9.81946 9.9137 10.0915 9.9137 10.4272V12.3617C9.9137 12.6974 10.1858 12.9695 10.5214 12.9695H12.456C12.7916 12.9695 13.0637 12.6974 13.0637 12.3617V10.4272C13.0637 10.0915 12.7916 9.81946 12.456 9.81946Z" fill="#797979"/>
<path d="M17.384 9.81946H15.4494C15.1138 9.81946 14.8417 10.0915 14.8417 10.4272V12.3617C14.8417 12.6974 15.1138 12.9695 15.4494 12.9695H17.384C17.7196 12.9695 17.9917 12.6974 17.9917 12.3617V10.4272C17.9917 10.0915 17.7196 9.81946 17.384 9.81946Z" fill="#797979"/>
</svg>
