<svg width="22" height="28" viewBox="0 0 22 28" fill="none" xmlns="http://www.w3.org/2000/svg">
<path d="M8.0559 19.384C8.64209 19.384 9.11729 18.9088 9.11729 18.3226C9.11729 17.7364 8.64209 17.2612 8.0559 17.2612C7.46971 17.2612 6.99451 17.7364 6.99451 18.3226C6.99451 18.9088 7.46971 19.384 8.0559 19.384Z" fill="#FEFEFE"/>
<path d="M19.3189 9.90783C17.8146 11.6794 16.2493 13.1378 14.6305 14.3061C13.0116 15.4821 11.3317 16.3602 9.60602 16.9558C9.40749 17.0245 9.19368 16.9176 9.12496 16.7191C9.09441 16.6274 9.09441 16.5358 9.12496 16.4595C10.1711 13.2753 11.5455 10.4042 13.2407 7.84613C13.2484 7.83086 13.256 7.82323 13.2636 7.80795C13.3934 7.60942 13.5309 7.41089 13.6683 7.21235C15.562 4.47869 17.8299 2.10392 20.4643 0.0804027C20.6323 -0.049408 20.869 -0.0188643 20.9988 0.149126C21.0523 0.217849 21.0828 0.30948 21.0752 0.393475C21.0599 0.874538 21.0599 1.40905 21.0599 1.97411C21.0675 3.97472 21.0828 6.27313 20.0672 7.36507C19.4564 8.02176 18.3721 8.31956 17.219 8.4341C17.9826 8.67845 18.6622 8.96861 19.2349 9.34277C19.4105 9.45731 19.464 9.69403 19.3495 9.86965C19.3418 9.88492 19.3342 9.89256 19.3189 9.90783ZM14.1876 13.6876C15.646 12.6339 17.0663 11.3281 18.4408 9.75511C17.891 9.45731 17.2343 9.2206 16.5089 9.02206C15.6613 8.78535 14.7221 8.60209 13.7523 8.44937C12.2862 10.7096 11.0645 13.2065 10.1024 15.9555C11.4997 15.4057 12.8589 14.6497 14.1876 13.6876ZM14.2945 7.63996L14.2563 7.69341C15.9515 7.79268 18.5706 7.85377 19.5098 6.84583C20.3192 5.97533 20.3116 3.83728 20.3039 1.97411C20.3039 1.69922 20.2963 1.43196 20.3039 1.17998C17.9979 3.04314 15.9896 5.19647 14.2945 7.63996Z" fill="#FEFEFE"/>
<path d="M0.572694 23.7364C0.251985 23.7364 0 23.4845 0 23.1637C0 22.8507 0.251985 22.591 0.572694 22.591H3.48198V19.6818C3.48198 19.3611 3.7416 19.1091 4.05467 19.1091C4.36775 19.1091 4.62737 19.3611 4.62737 19.6818V22.591H7.53665C7.85736 22.591 8.10935 22.8507 8.10935 23.1637C8.10935 23.4845 7.85736 23.7364 7.53665 23.7364H4.62737V26.6534C4.62737 26.9664 4.36775 27.2261 4.05467 27.2261C3.7416 27.2261 3.48198 26.9664 3.48198 26.6534V23.7364H0.572694Z" fill="#FEFEFE"/>
</svg>
