<svg width="20" height="20" viewBox="0 0 20 20" fill="none" xmlns="http://www.w3.org/2000/svg">
<path fill-rule="evenodd" clip-rule="evenodd" d="M3.58331 0.833313H16.4166C17.9354 0.833313 19.1666 2.06453 19.1666 3.58331V16.4166C19.1666 17.9354 17.9354 19.1666 16.4166 19.1666H3.58331C2.06453 19.1666 0.833313 17.9354 0.833313 16.4166V3.58331C0.833313 2.06453 2.06453 0.833313 3.58331 0.833313ZM3.58331 17.3333H16.4166C16.7713 17.3306 17.0927 17.1236 17.2416 16.8016L7.38748 9.42248L2.66665 14.9225V16.4166C2.66665 16.9229 3.07705 17.3333 3.58331 17.3333ZM17.3333 14.5833L11.8333 10.4216L13.7766 8.47831L17.3333 11.3566V14.5833ZM14.235 6.53498L17.3333 9.00998V3.58331C17.3333 3.07705 16.9229 2.66665 16.4166 2.66665H3.58331C3.07705 2.66665 2.66665 3.07705 2.66665 3.58331V12.1083L6.55331 7.57081C6.86757 7.20337 7.41319 7.14319 7.79998 7.43331L10.2658 9.34915L13.0158 6.59915C13.3468 6.27088 13.8714 6.24327 14.235 6.53498Z" fill="white"/>
</svg>
