<svg width="20" height="17" viewBox="0 0 20 17" fill="none" xmlns="http://www.w3.org/2000/svg">
<path fill-rule="evenodd" clip-rule="evenodd" d="M5.43697 0.43042C6.87959 0.43042 8.0999 1.38046 8.50706 2.68852C8.08352 2.87572 7.7021 3.13897 7.37918 3.46072C6.70994 4.13113 6.29576 5.05543 6.29576 6.07685C6.29576 6.29915 6.31565 6.51794 6.35309 6.73088C6.06293 6.81629 5.75522 6.86309 5.43697 6.86309C3.66091 6.86309 2.22064 5.42282 2.22064 3.64675C2.22064 1.87069 3.66091 0.43042 5.43697 0.43042Z" fill="#797979"/>
<path fill-rule="evenodd" clip-rule="evenodd" d="M0 13.7544C1.35837 13.9896 2.71674 14.1323 4.07511 14.1873V13.2981C4.07511 12.1199 4.55715 11.0482 5.33287 10.2725C5.98339 9.62198 6.84217 9.17738 7.79689 9.05102C7.6483 8.94221 7.50907 8.8217 7.3792 8.69183C6.9346 8.24723 6.60232 7.69031 6.43033 7.06787H3.80133C1.71054 7.06787 0 8.77841 0 10.868V13.7544Z" fill="#797979"/>
<path fill-rule="evenodd" clip-rule="evenodd" d="M4.55719 16.1845C8.18185 16.8104 11.8065 16.7835 15.4312 16.1845V13.2981C15.4312 11.2073 13.7206 9.49677 11.6298 9.49677H8.35852C6.26773 9.49677 4.55719 11.2073 4.55719 13.2981V16.1845Z" fill="#797979"/>
<path fill-rule="evenodd" clip-rule="evenodd" d="M20 13.7544C18.6416 13.9896 17.2832 14.1323 15.9248 14.1873V13.2981C15.9248 12.1199 15.4428 11.0482 14.6671 10.2725C14.0166 9.62198 13.1578 9.17738 12.2031 9.05102C12.3517 8.94221 12.4909 8.8217 12.6208 8.69183C13.0654 8.24723 13.3976 7.69031 13.5696 7.06787H16.1986C18.2894 7.06787 20 8.77841 20 10.868V13.7544Z" fill="#797979"/>
<path fill-rule="evenodd" clip-rule="evenodd" d="M14.563 0.43042C13.1204 0.43042 11.9001 1.38046 11.4929 2.68852C11.9165 2.87572 12.2979 3.13897 12.6208 3.46072C13.29 4.13113 13.7042 5.05543 13.7042 6.07685C13.7042 6.29915 13.6843 6.51794 13.6469 6.73088C13.9371 6.81629 14.2448 6.86309 14.563 6.86309C16.3391 6.86309 17.7793 5.42282 17.7793 3.64675C17.7793 1.87069 16.3391 0.43042 14.563 0.43042Z" fill="#797979"/>
<path fill-rule="evenodd" clip-rule="evenodd" d="M9.99417 2.86047C11.7702 2.86047 13.2105 4.30075 13.2105 6.07681C13.2105 7.85287 11.7702 9.29314 9.99417 9.29314C8.2181 9.29314 6.77783 7.85287 6.77783 6.07681C6.77783 4.30075 8.2181 2.86047 9.99417 2.86047Z" fill="#797979"/>
<path fill-rule="evenodd" clip-rule="evenodd" d="M4.55719 16.1845C8.18185 16.8104 11.8065 16.7835 15.4312 16.1845V13.2981C15.4312 11.2073 13.7206 9.49677 11.6298 9.49677H8.35852C6.26773 9.49677 4.55719 11.2073 4.55719 13.2981V16.1845Z" fill="#797979"/>
</svg>
