<svg width="20" height="20" viewBox="0 0 20 20" fill="none" xmlns="http://www.w3.org/2000/svg">
<path fill-rule="evenodd" clip-rule="evenodd" d="M17.6124 10.8983L17.6446 18.1246C17.648 18.9495 16.9623 19.6244 16.1283 19.6244H12.6755V15.0739C12.6755 14.0308 11.8128 13.1764 10.7572 13.1764H9.0928C8.03833 13.1764 7.17453 14.0308 7.17453 15.0739V19.6244H3.93531C3.10138 19.6244 2.41908 18.9495 2.41908 18.1246L2.41218 10.8983H0.953383C-0.129805 10.8983 -0.264198 10.187 0.419255 9.50986L9.30875 0.716744C9.6947 0.334978 10.3265 0.334978 10.7124 0.716744L19.6019 9.50986C20.1418 10.0439 20.2463 10.8983 19.1884 10.8983H17.6124Z" fill="#05B1A1"/>
</svg>
