<svg width="19" height="19" viewBox="0 0 19 19" fill="none" xmlns="http://www.w3.org/2000/svg">
<path d="M14.4625 7.29136L15.1096 10.4207L16.4594 11.7705L16.7248 12.0359L16.4581 12.3026L12.3025 16.4582L12.0358 16.7249L11.7704 16.4595L10.4206 15.1097L7.29127 14.4626L7.07515 14.4183L7.00942 14.211L3.89019 4.36297L3.67155 3.67164L4.36288 3.89029L14.211 7.00952L14.4182 7.07524L14.4625 7.29136ZM10.5495 10.5496C10.2336 10.8656 9.81774 11.0236 9.40319 11.0236L9.40193 11.0223L9.40066 11.0236C8.98612 11.0236 8.5703 10.8656 8.25434 10.5496C7.93963 10.2349 7.78165 9.8191 7.78038 9.40329L7.78165 9.40202L7.78038 9.40076C7.78165 9.10628 7.86127 8.81179 8.01926 8.5527L8.58041 9.11386C8.54755 9.20739 8.53239 9.30344 8.53112 9.40076V9.40329C8.53239 9.62446 8.61707 9.84564 8.78769 10.0163C8.95831 10.1869 9.18075 10.2728 9.40066 10.2728L9.40319 10.2728C9.62311 10.2728 9.84555 10.1869 10.0162 10.0163C10.1868 9.84564 10.2715 9.62446 10.2727 9.40329L10.2727 9.40076C10.2727 9.18084 10.1868 8.9584 10.0162 8.78778C9.84555 8.61716 9.62437 8.53248 9.40319 8.53122H9.40066C9.30335 8.53248 9.20603 8.54891 9.11377 8.58051L8.55261 8.01935C8.8117 7.86136 9.10618 7.78174 9.40066 7.78048L9.40193 7.78174L9.40319 7.78048C9.81901 7.78174 10.2348 7.93972 10.5495 8.25443C10.8655 8.5704 11.0235 8.98621 11.0235 9.40076L11.0222 9.40202L11.0235 9.40329C11.0235 9.81783 10.8655 10.2336 10.5495 10.5496ZM5.60527 5.07201L8.29478 7.76152L7.76143 8.29487L5.07191 5.60536L7.65905 13.7737L10.4863 14.3564L14.3563 10.4864L13.7737 7.65915L5.60527 5.07201ZM14.7645 11.1424L11.1423 14.7646L12.0371 15.6594L15.6593 12.0372L14.7645 11.1424Z" fill="#05B1A1"/>
</svg>
