<svg width="28" height="22" viewBox="0 0 28 22" fill="none" xmlns="http://www.w3.org/2000/svg">
<path d="M2.44625 18.6187H8.358L8.345 18.6054C7.11975 17.3534 6.28775 15.6961 6.0635 13.8429L6.057 13.7898L6.0505 13.74V13.7333L6.044 13.6769L6.04075 13.6337L6.0375 13.5839L6.031 13.5374L6.02775 13.4709L6.0245 13.451C6.0245 13.4244 6.02125 13.4012 6.02125 13.3746L6.018 13.3414C6.018 13.3148 6.01475 13.2883 6.01475 13.2617L6.0115 13.2385C6.0115 13.2119 6.0115 13.1853 6.00825 13.1588V13.1289C6.00825 13.1023 6.005 13.0757 6.005 13.0492V13.0259C6.005 12.9993 6.005 12.9694 6.005 12.9396L6.00175 12.9229C6.00175 12.8931 6.00175 12.8598 6.00175 12.8266C6.00175 11.7074 6.22275 10.638 6.6225 9.6649H1.4875V17.639C1.4875 17.908 1.59475 18.1538 1.77025 18.3298C1.9425 18.5091 2.183 18.6187 2.44625 18.6187ZM6.85 9.16672C7.2335 8.37961 7.7405 7.66556 8.345 7.05115C9.79125 5.56991 11.79 4.65659 14 4.65659C16.2067 4.65659 18.2087 5.56991 19.655 7.05115C20.2563 7.66556 20.7633 8.37961 21.15 9.16672H26.5125V6.33045C26.5125 6.06144 26.402 5.81568 26.2297 5.63965C26.0543 5.46031 25.817 5.35071 25.5538 5.35071H20.8022C20.3505 5.35071 19.9377 5.16473 19.6322 4.86583C19.33 4.56692 19.135 4.15178 19.1155 3.69014V3.68017V2.54434C19.1155 2.25872 19.0018 1.99635 18.8165 1.80704C18.628 1.61773 18.3745 1.49817 18.0918 1.49817H10.022C9.73925 1.49817 9.48575 1.61773 9.3005 1.80704C9.112 1.99635 8.99825 2.25872 8.99825 2.54434V4.0455V4.08203L8.9885 4.11524C8.88125 4.47725 8.6635 4.78944 8.3775 5.00864C8.09475 5.22119 7.747 5.35071 7.37 5.35071H2.44625C2.183 5.35071 1.9425 5.46031 1.77025 5.63965C1.59475 5.81568 1.4875 6.06144 1.4875 6.33045V9.16672H6.85ZM21.3743 9.6649C21.7773 10.638 21.9983 11.7074 21.9983 12.8266C21.9983 12.8598 21.9983 12.8931 21.995 12.9229V12.9396C21.995 12.9694 21.995 12.9993 21.995 13.0259V13.0492C21.9918 13.0757 21.9918 13.1023 21.9918 13.1289V13.1588C21.9885 13.1853 21.9885 13.2119 21.9885 13.2385L21.9853 13.2617C21.9853 13.2883 21.982 13.3148 21.982 13.3414L21.9788 13.3746C21.9788 13.4012 21.9755 13.4244 21.9755 13.451L21.9722 13.4709L21.9657 13.5374L21.9625 13.5839L21.9592 13.6337L21.9528 13.6769L21.9495 13.7333L21.9463 13.74L21.943 13.7898L21.9365 13.8429C21.7122 15.6961 20.8803 17.3534 19.655 18.6054L19.642 18.6187H25.5538C25.817 18.6187 26.0543 18.5091 26.2297 18.3298C26.402 18.1538 26.5125 17.908 26.5125 17.639V9.6649H21.3743ZM14 7.19728C15.521 7.19728 16.899 7.8283 17.8935 8.84789C18.8913 9.86749 19.5088 11.2723 19.5088 12.8266C19.5088 14.3843 18.8913 15.7891 17.8935 16.8087C16.899 17.8283 15.521 18.456 14 18.456C12.479 18.456 11.101 17.8283 10.1033 16.8087C9.10875 15.7891 8.49125 14.3843 8.49125 12.8266C8.49125 11.2723 9.10875 9.86749 10.1033 8.84789C11.101 7.8283 12.479 7.19728 14 7.19728ZM17.549 9.19993C16.6423 8.27001 15.3878 7.69545 14 7.69545C12.6123 7.69545 11.3577 8.27001 10.4478 9.19993C9.541 10.1299 8.97875 11.4118 8.97875 12.8266C8.97875 14.2448 9.541 15.5267 10.4478 16.4567C11.3577 17.3866 12.6123 17.9578 14 17.9578C15.3878 17.9578 16.6423 17.3866 17.549 16.4567C18.459 15.5267 19.0212 14.2448 19.0212 12.8266C19.0212 11.4118 18.459 10.1299 17.549 9.19993ZM19.1058 19.1169C17.7213 20.2926 15.9403 21 14 21C12.0565 21 10.2788 20.2926 8.891 19.1169H2.44625C2.04975 19.1169 1.689 18.9508 1.42575 18.6818C1.1625 18.4161 1 18.0442 1 17.639V6.33045C1 5.92195 1.1625 5.5533 1.42575 5.28429C1.689 5.0186 2.04975 4.85254 2.44625 4.85254H7.37C7.63975 4.85254 7.88675 4.76287 8.085 4.6101C8.28325 4.46064 8.43275 4.25141 8.51075 4.00897V2.54434C8.51075 2.11923 8.67975 1.73398 8.95275 1.455C9.229 1.1727 9.606 1 10.022 1H18.0918C18.5077 1 18.8848 1.1727 19.161 1.455C19.434 1.73398 19.603 2.11923 19.603 2.54434V3.68017C19.616 4.00565 19.7558 4.29791 19.9703 4.50714C20.1847 4.71969 20.4805 4.85254 20.8022 4.85254H25.5538C25.9503 4.85254 26.311 5.0186 26.5743 5.28429C26.8375 5.5533 27 5.92195 27 6.33045V17.639C27 18.0442 26.8375 18.4161 26.5743 18.6818C26.311 18.9508 25.9503 19.1169 25.5538 19.1169H19.1058ZM6.48925 12.8266C6.48925 12.8598 6.48925 12.8897 6.48925 12.9229V12.9296C6.4925 12.9595 6.4925 12.9861 6.4925 13.0159V13.0325C6.4925 13.0624 6.49575 13.089 6.49575 13.1156V13.1322C6.49575 13.1621 6.499 13.192 6.499 13.2185V13.2285C6.58675 14.9588 7.2335 16.5364 8.26375 17.7785V17.7818C8.3385 17.8715 8.4165 17.9645 8.49775 18.0508L8.50425 18.0608C8.52375 18.0807 8.54325 18.1006 8.56275 18.1206L8.566 18.1239C8.5855 18.1471 8.605 18.1671 8.62775 18.1903C8.64725 18.2102 8.66675 18.2335 8.6895 18.2534V18.2567C8.71225 18.2767 8.73175 18.2966 8.75125 18.3165L8.7545 18.3198C8.774 18.3398 8.7935 18.3597 8.813 18.3796L8.82275 18.3862C8.84225 18.4062 8.86175 18.4228 8.878 18.4427L8.891 18.4527C8.9105 18.4693 8.92675 18.4859 8.94625 18.5025L8.95925 18.5158C8.9755 18.5324 8.995 18.549 9.01125 18.5656L9.021 18.5722C9.03725 18.5888 9.05675 18.6054 9.0795 18.6254L9.0925 18.6353C9.112 18.6553 9.1315 18.6719 9.151 18.6885L9.15425 18.6918C10.4608 19.821 12.154 20.5018 14 20.5018C15.8785 20.5018 17.5945 19.7977 18.9107 18.6353L18.9172 18.6254C18.94 18.6088 18.9595 18.5888 18.9823 18.5689C19.005 18.5523 19.0245 18.5324 19.0473 18.5125L19.0505 18.5091V18.5058C19.07 18.4892 19.0895 18.4693 19.1123 18.4494L19.1187 18.4427C19.1383 18.4261 19.1578 18.4062 19.1772 18.3862L19.1838 18.3796C19.226 18.3364 19.2682 18.2966 19.3105 18.2534C19.3722 18.1903 19.434 18.1239 19.4958 18.0575L19.499 18.0541C20.6625 16.7755 21.4067 15.0883 21.501 13.2285V13.2185C21.501 13.192 21.501 13.1621 21.5042 13.1322V13.1156C21.5042 13.089 21.5075 13.0624 21.5075 13.0325V13.0159C21.5075 12.9861 21.5075 12.9595 21.5075 12.9296V12.9229C21.5107 12.8897 21.5107 12.8598 21.5107 12.8266C21.5107 10.7077 20.669 8.79143 19.3105 7.40319C17.952 6.01162 16.0735 5.15477 14 5.15477C11.9265 5.15477 10.048 6.01162 8.6895 7.40319C7.331 8.79143 6.48925 10.7077 6.48925 12.8266ZM7.19125 3.73995C7.19125 3.87612 7.084 3.98904 6.9475 3.98904C6.81425 3.98904 6.70375 3.87612 6.70375 3.73995V3.04251C6.70375 2.95616 6.67125 2.87977 6.61275 2.81999C6.5575 2.76353 6.48275 2.727 6.395 2.727H3.75925C3.67475 2.727 3.59675 2.76353 3.5415 2.81999C3.48625 2.87977 3.4505 2.95616 3.4505 3.04251V3.73995C3.4505 3.87612 3.34325 3.98904 3.20675 3.98904C3.0735 3.98904 2.963 3.87612 2.963 3.73995V3.04251C2.963 2.81999 3.054 2.6174 3.197 2.47127L3.20025 2.46795C3.34325 2.32182 3.5415 2.22883 3.75925 2.22883H6.395C6.616 2.22883 6.81425 2.32182 6.95725 2.47127V2.46795C7.1035 2.6174 7.19125 2.81999 7.19125 3.04251V3.73995Z" fill="white" stroke="white" stroke-width="0.5"/>
</svg>
