<svg width="18" height="18" viewBox="0 0 18 18" fill="none" xmlns="http://www.w3.org/2000/svg">
<path d="M13.4438 4.69151L14.9506 3.14334M3.34973 15.1571L4.48505 13.9805L3.34973 15.1571Z" stroke="currentColor" stroke-width="0.8" stroke-linecap="round" stroke-linejoin="round"/>
<path d="M8.86123 2.875L8.81995 0.625" stroke="currentColor" stroke-width="0.8" stroke-linecap="round" stroke-linejoin="round"/>
<path d="M4.48508 4.69151L2.99884 3.14334M14.5998 15.1571L13.4438 13.9805L14.5998 15.1571Z" stroke="currentColor" stroke-width="0.8" stroke-linecap="round" stroke-linejoin="round"/>
<path d="M15.4255 9.33603H17.3039M0.625 9.33603H2.50344H0.625Z" stroke="currentColor" stroke-width="0.8" stroke-linecap="round" stroke-linejoin="round"/>
<path fill-rule="evenodd" clip-rule="evenodd" d="M11.039 14.0011V17.0768H7.11697V14.0011C5.30046 13.2374 4 11.4415 4 9.33599C4 6.52865 6.27064 4.25801 9.07798 4.25801C11.8853 4.25801 14.156 6.52865 14.156 9.33599C14.156 11.4415 12.8761 13.2374 11.039 14.0011Z" stroke="currentColor" stroke-width="0.8" stroke-linecap="round" stroke-linejoin="round"/>
<path d="M11.297 15.25H7.375" stroke="currentColor" stroke-width="0.8"/>
</svg>
