<svg width="17" height="17" viewBox="0 0 17 17" fill="none" xmlns="http://www.w3.org/2000/svg">
<path d="M5.50995 9.33998C5.50995 7.8212 6.74117 6.58998 8.25995 6.58998H8.73995C10.2587 6.58998 11.4899 7.8212 11.4899 9.33998V12.03H5.50995V9.33998Z" stroke="currentColor" stroke-width="0.5"/>
<path d="M6.04993 3.09999C6.04993 1.74689 7.14683 0.649986 8.49993 0.649986C9.85302 0.649986 10.9499 1.74689 10.9499 3.09999C10.9499 4.45308 9.85302 5.54999 8.49993 5.54999C7.14683 5.54999 6.04993 4.45308 6.04993 3.09999Z" stroke="currentColor" stroke-width="0.5"/>
<path d="M0.748169 10.071C0.748169 8.74498 1.82309 7.67006 3.14908 7.67006C4.47506 7.67006 5.54999 8.74498 5.54999 10.071V12.0301H0.748169V10.071Z" stroke="currentColor" stroke-width="0.5"/>
<path d="M1.18997 4.76914C1.18997 3.68717 2.06709 2.81005 3.14906 2.81005C4.23104 2.81005 5.10815 3.68717 5.10815 4.76914C5.10815 5.85112 4.23104 6.72823 3.14906 6.72823C2.06709 6.72823 1.18997 5.85112 1.18997 4.76914Z" stroke="currentColor" stroke-width="0.5"/>
<path d="M11.45 10.071C11.45 8.74498 12.5249 7.67006 13.8509 7.67006C15.1769 7.67006 16.2518 8.74498 16.2518 10.071V12.0301H11.45V10.071Z" stroke="currentColor" stroke-width="0.5"/>
<path d="M11.8918 4.76914C11.8918 3.68717 12.7689 2.81005 13.8509 2.81005C14.9329 2.81005 15.81 3.68717 15.81 4.76914C15.81 5.85112 14.9329 6.72823 13.8509 6.72823C12.7689 6.72823 11.8918 5.85112 11.8918 4.76914Z" stroke="currentColor" stroke-width="0.5"/>
<path d="M0.649963 14.71C0.649963 13.8043 1.38422 13.07 2.28996 13.07H14.71C15.6157 13.07 16.35 13.8043 16.35 14.71C16.35 15.6158 15.6157 16.35 14.71 16.35H2.28996C1.38422 16.35 0.649963 15.6158 0.649963 14.71Z" stroke="currentColor" stroke-width="0.5"/>
<path d="M0.649963 14.71C0.649963 13.8043 1.38422 13.07 2.28996 13.07H10.95V16.35H2.28996C1.38422 16.35 0.649963 15.6158 0.649963 14.71Z" fill="currentColor" stroke="currentColor" stroke-width="0.5"/>
</svg>
