<svg width="17" height="15" viewBox="0 0 17 15" fill="none" xmlns="http://www.w3.org/2000/svg">
<path d="M0.800024 3.75453C0.800024 3.42316 1.06865 3.15453 1.40002 3.15453H3.3273C3.65867 3.15453 3.9273 3.42316 3.9273 3.75453V14.1364H0.800024V3.75453Z" stroke="currentColor" stroke-width="0.8"/>
<path d="M4.72733 1.30002C4.72733 0.968648 4.99596 0.700018 5.32733 0.700018H7.74551C8.07688 0.700018 8.34551 0.968648 8.34551 1.30002V14.1364H4.72733V1.30002Z" stroke="currentColor" stroke-width="0.8"/>
<path d="M9.14548 5.22729C9.14548 4.89592 9.41411 4.62729 9.74548 4.62729H11.6728C12.0041 4.62729 12.2728 4.89592 12.2728 5.22729V14.1364H9.14548V5.22729Z" stroke="currentColor" stroke-width="0.8"/>
<path d="M13.0728 10.6273C13.0728 10.2959 13.3414 10.0273 13.6728 10.0273H15.6001C15.9314 10.0273 16.2001 10.2959 16.2001 10.6273V14.1364H13.0728V10.6273Z" stroke="currentColor" stroke-width="0.8"/>
</svg>
