<svg width="13" height="15" viewBox="0 0 13 15" fill="none" xmlns="http://www.w3.org/2000/svg">
<path d="M5.99016 1.05892L9.32727 1.68596L8.4278 1.85505L7.60091 2.01049L8.18924 2.61196C8.7319 3.16676 9.06516 3.92404 9.06516 4.76063C9.06516 6.45957 7.6888 7.83654 5.99017 7.83654C4.29138 7.83654 2.91425 6.45941 2.91425 4.76063C2.91425 3.92431 3.24825 3.16683 3.79041 2.61172L4.37758 2.01054L3.55173 1.85507L2.65298 1.68588L5.99016 1.05892ZM0.516517 6.73319L0.82902 4.00431L1.13702 6.73319H0.516517ZM5.78777 11.8398L6.10597 12.158L6.42417 11.8398L8.98609 9.27784C10.5219 9.33682 11.7619 10.6131 11.7619 12.1626V12.7305C11.7619 13.4002 11.2129 13.949 10.5444 13.949H1.66754C0.999083 13.949 0.45 13.4002 0.45 12.7305V12.1626C0.45 10.6128 1.69053 9.33636 3.22582 9.27781L5.78777 11.8398Z" stroke="#05B1A1" stroke-width="0.9"/>
</svg>
