<svg width="15" height="15" viewBox="0 0 15 15" fill="none" xmlns="http://www.w3.org/2000/svg">
<path d="M5.35433 13.0104H9.64403V4.45728H5.35433V13.0104ZM9.64403 3.32694V3.11993C9.64403 2.81106 9.51752 2.52848 9.31544 2.32311L9.31216 2.31982C9.10679 2.11774 8.82421 1.98959 8.51369 1.98959H6.48467C6.17415 1.98959 5.89157 2.11774 5.6862 2.32147V2.32311C5.48248 2.52683 5.35433 2.81106 5.35433 3.11993V3.32694H9.64403ZM2.82585 3.32694H4.22399V3.11993C4.22399 2.4989 4.47864 1.93209 4.88773 1.523H4.88938C5.30011 1.11555 5.86528 0.859253 6.48467 0.859253H8.51369C9.13472 0.859253 9.69989 1.11555 10.109 1.523L10.1123 1.52628C10.5197 1.93538 10.7744 2.50055 10.7744 3.11993V3.32694H12.1742C12.9513 3.32694 13.6577 3.64567 14.1703 4.15662C14.6813 4.66922 15 5.37568 15 6.15279V11.3149C15 12.092 14.6813 12.7985 14.1703 13.3111C13.6577 13.822 12.9513 14.1407 12.1742 14.1407H10.7744H10.2092H4.78916H4.22399H2.82585C2.04874 14.1407 1.34228 13.822 0.829682 13.3111C0.318729 12.7985 0 12.092 0 11.3149V6.15279C0 5.37568 0.318729 4.66922 0.829682 4.15662C1.34228 3.64567 2.04874 3.32694 2.82585 3.32694ZM12.1742 4.45728H10.7744V13.0104H12.1742C12.6391 13.0104 13.0646 12.8182 13.3702 12.511C13.6774 12.2037 13.8697 11.7798 13.8697 11.3149V6.15279C13.8697 5.68784 13.6774 5.26232 13.3702 4.95673C13.0646 4.6495 12.6391 4.45728 12.1742 4.45728ZM4.22399 4.45728H2.82585C2.3609 4.45728 1.93538 4.6495 1.62979 4.95673C1.32256 5.26232 1.13034 5.68784 1.13034 6.15279V11.3149C1.13034 11.7798 1.32256 12.2037 1.62979 12.511C1.93538 12.8182 2.3609 13.0104 2.82585 13.0104H4.22399V4.45728Z" fill="#05B1A1"/>
</svg>
