<svg width="17" height="17" viewBox="0 0 17 17" fill="none" xmlns="http://www.w3.org/2000/svg">
<path d="M0.500122 8.40909C0.500122 8.68523 0.72398 8.90909 1.00012 8.90909C1.27626 8.90909 1.50012 8.68523 1.50012 8.40909H0.500122ZM16.3536 4.35355C16.5489 4.15829 16.5489 3.84171 16.3536 3.64645L13.1716 0.464466C12.9764 0.269204 12.6598 0.269204 12.4645 0.464466C12.2693 0.659728 12.2693 0.976311 12.4645 1.17157L15.293 4L12.4645 6.82843C12.2693 7.02369 12.2693 7.34027 12.4645 7.53553C12.6598 7.7308 12.9764 7.7308 13.1716 7.53553L16.3536 4.35355ZM1.50012 8.40909C1.50012 7.26548 1.73947 6.26928 2.19167 5.57579C2.6289 4.90525 3.27209 4.5 4.18193 4.5V3.5C2.90996 3.5 1.96224 4.09681 1.35402 5.02959C0.760769 5.9394 0.500122 7.14775 0.500122 8.40909H1.50012ZM4.18193 4.5C4.18619 4.5 4.19047 4.5 4.19476 4.5C4.19906 4.5 4.20337 4.5 4.2077 4.5C4.21203 4.5 4.21637 4.5 4.22073 4.5C4.2251 4.5 4.22947 4.5 4.23387 4.5C4.23826 4.5 4.24268 4.5 4.24711 4.5C4.25153 4.5 4.25598 4.5 4.26044 4.5C4.2649 4.5 4.26938 4.5 4.27388 4.5C4.27837 4.5 4.28288 4.5 4.28741 4.5C4.29194 4.5 4.29648 4.5 4.30104 4.5C4.3056 4.5 4.31018 4.5 4.31477 4.5C4.31936 4.5 4.32397 4.5 4.3286 4.5C4.33322 4.5 4.33787 4.5 4.34252 4.5C4.34718 4.5 4.35185 4.5 4.35654 4.5C4.36124 4.5 4.36594 4.5 4.37066 4.5C4.37539 4.5 4.38012 4.5 4.38488 4.5C4.38963 4.5 4.3944 4.5 4.39919 4.5C4.40397 4.5 4.40878 4.5 4.4136 4.5C4.41841 4.5 4.42325 4.5 4.4281 4.5C4.43295 4.5 4.43781 4.5 4.44269 4.5C4.44757 4.5 4.45247 4.5 4.45738 4.5C4.4623 4.5 4.46722 4.5 4.47217 4.5C4.47711 4.5 4.48207 4.5 4.48705 4.5C4.49202 4.5 4.49701 4.5 4.50202 4.5C4.50702 4.5 4.51205 4.5 4.51708 4.5C4.52212 4.5 4.52717 4.5 4.53224 4.5C4.53731 4.5 4.54239 4.5 4.54749 4.5C4.55259 4.5 4.5577 4.5 4.56283 4.5C4.56796 4.5 4.57311 4.5 4.57827 4.5C4.58343 4.5 4.5886 4.5 4.59379 4.5C4.59898 4.5 4.60419 4.5 4.60941 4.5C4.61463 4.5 4.61986 4.5 4.62511 4.5C4.63036 4.5 4.63563 4.5 4.64091 4.5C4.64619 4.5 4.65149 4.5 4.6568 4.5C4.66211 4.5 4.66743 4.5 4.67277 4.5C4.67811 4.5 4.68347 4.5 4.68884 4.5C4.69421 4.5 4.69959 4.5 4.70499 4.5C4.71039 4.5 4.7158 4.5 4.72123 4.5C4.72666 4.5 4.7321 4.5 4.73756 4.5C4.74302 4.5 4.74849 4.5 4.75398 4.5C4.75947 4.5 4.76497 4.5 4.77048 4.5C4.776 4.5 4.78153 4.5 4.78708 4.5C4.79262 4.5 4.79818 4.5 4.80375 4.5C4.80933 4.5 4.81492 4.5 4.82052 4.5C4.82612 4.5 4.83174 4.5 4.83737 4.5C4.843 4.5 4.84865 4.5 4.85431 4.5C4.85996 4.5 4.86564 4.5 4.87133 4.5C4.87701 4.5 4.88272 4.5 4.88843 4.5C4.89415 4.5 4.89988 4.5 4.90562 4.5C4.91137 4.5 4.91713 4.5 4.9229 4.5C4.92867 4.5 4.93446 4.5 4.94026 4.5C4.94606 4.5 4.95187 4.5 4.9577 4.5C4.96353 4.5 4.96937 4.5 4.97522 4.5C4.98108 4.5 4.98695 4.5 4.99283 4.5C4.99871 4.5 5.00461 4.5 5.01052 4.5C5.01643 4.5 5.02235 4.5 5.02829 4.5C5.03423 4.5 5.04018 4.5 5.04614 4.5C5.05211 4.5 5.05809 4.5 5.06408 4.5C5.07007 4.5 5.07608 4.5 5.08209 4.5C5.08811 4.5 5.09415 4.5 5.10019 4.5C5.10624 4.5 5.11229 4.5 5.11837 4.5C5.12444 4.5 5.13052 4.5 5.13662 4.5C5.14272 4.5 5.14883 4.5 5.15496 4.5C5.16108 4.5 5.16722 4.5 5.17337 4.5C5.17952 4.5 5.18569 4.5 5.19187 4.5C5.19804 4.5 5.20423 4.5 5.21044 4.5C5.21664 4.5 5.22286 4.5 5.22909 4.5C5.23532 4.5 5.24156 4.5 5.24781 4.5C5.25407 4.5 5.26034 4.5 5.26662 4.5C5.2729 4.5 5.27919 4.5 5.2855 4.5C5.29181 4.5 5.29813 4.5 5.30446 4.5C5.31079 4.5 5.31713 4.5 5.32349 4.5C5.32985 4.5 5.33622 4.5 5.3426 4.5C5.34899 4.5 5.35538 4.5 5.36179 4.5C5.3682 4.5 5.37462 4.5 5.38105 4.5C5.38748 4.5 5.39393 4.5 5.40038 4.5C5.40684 4.5 5.41331 4.5 5.41979 4.5C5.42628 4.5 5.43277 4.5 5.43928 4.5C5.44579 4.5 5.45231 4.5 5.45884 4.5C5.46537 4.5 5.47191 4.5 5.47847 4.5C5.48502 4.5 5.49159 4.5 5.49817 4.5C5.50475 4.5 5.51134 4.5 5.51795 4.5C5.52455 4.5 5.53117 4.5 5.5378 4.5C5.54443 4.5 5.55107 4.5 5.55772 4.5C5.56437 4.5 5.57104 4.5 5.57771 4.5C5.58439 4.5 5.59108 4.5 5.59778 4.5C5.60448 4.5 5.61119 4.5 5.61791 4.5C5.62463 4.5 5.63137 4.5 5.63812 4.5C5.64486 4.5 5.65162 4.5 5.65839 4.5C5.66516 4.5 5.67194 4.5 5.67874 4.5C5.68553 4.5 5.69234 4.5 5.69915 4.5C5.70597 4.5 5.7128 4.5 5.71964 4.5C5.72647 4.5 5.73333 4.5 5.74019 4.5C5.74705 4.5 5.75392 4.5 5.76081 4.5C5.76769 4.5 5.77459 4.5 5.7815 4.5C5.7884 4.5 5.79532 4.5 5.80225 4.5C5.80918 4.5 5.81613 4.5 5.82308 4.5C5.83003 4.5 5.83699 4.5 5.84397 4.5C5.85094 4.5 5.85793 4.5 5.86493 4.5C5.87192 4.5 5.87893 4.5 5.88595 4.5C5.89297 4.5 5.9 4.5 5.90704 4.5C5.91408 4.5 5.92113 4.5 5.92819 4.5C5.93526 4.5 5.94233 4.5 5.94941 4.5C5.9565 4.5 5.96359 4.5 5.9707 4.5C5.9778 4.5 5.98492 4.5 5.99205 4.5C5.99917 4.5 6.00631 4.5 6.01346 4.5C6.02061 4.5 6.02777 4.5 6.03494 4.5C6.04211 4.5 6.04929 4.5 6.05648 4.5C6.06367 4.5 6.07087 4.5 6.07808 4.5C6.08529 4.5 6.09251 4.5 6.09975 4.5C6.10698 4.5 6.11422 4.5 6.12148 4.5C6.12873 4.5 6.13599 4.5 6.14327 4.5C6.15054 4.5 6.15782 4.5 6.16512 4.5C6.17241 4.5 6.17972 4.5 6.18703 4.5C6.19434 4.5 6.20167 4.5 6.209 4.5C6.21634 4.5 6.22368 4.5 6.23104 4.5C6.23839 4.5 6.24576 4.5 6.25313 4.5C6.26051 4.5 6.26789 4.5 6.27529 4.5C6.28268 4.5 6.29009 4.5 6.2975 4.5C6.30491 4.5 6.31234 4.5 6.31977 4.5C6.32721 4.5 6.33465 4.5 6.3421 4.5C6.34956 4.5 6.35702 4.5 6.36449 4.5C6.37197 4.5 6.37945 4.5 6.38694 4.5C6.39443 4.5 6.40194 4.5 6.40945 4.5C6.41696 4.5 6.42448 4.5 6.43201 4.5C6.43954 4.5 6.44708 4.5 6.45463 4.5C6.46218 4.5 6.46974 4.5 6.47731 4.5C6.48487 4.5 6.49245 4.5 6.50004 4.5C6.50762 4.5 6.51522 4.5 6.52283 4.5C6.53043 4.5 6.53805 4.5 6.54567 4.5C6.55329 4.5 6.56093 4.5 6.56857 4.5C6.57621 4.5 6.58386 4.5 6.59152 4.5C6.59918 4.5 6.60685 4.5 6.61453 4.5C6.62221 4.5 6.6299 4.5 6.63759 4.5C6.64529 4.5 6.65299 4.5 6.66071 4.5C6.66842 4.5 6.67614 4.5 6.68388 4.5C6.69161 4.5 6.69935 4.5 6.7071 4.5C6.71485 4.5 6.72261 4.5 6.73037 4.5C6.73814 4.5 6.74592 4.5 6.7537 4.5C6.76148 4.5 6.76928 4.5 6.77708 4.5C6.78488 4.5 6.79269 4.5 6.80051 4.5C6.80833 4.5 6.81616 4.5 6.82399 4.5C6.83183 4.5 6.83967 4.5 6.84752 4.5C6.85538 4.5 6.86324 4.5 6.87111 4.5C6.87898 4.5 6.88685 4.5 6.89474 4.5C6.90263 4.5 6.91052 4.5 6.91842 4.5C6.92632 4.5 6.93424 4.5 6.94215 4.5C6.95007 4.5 6.958 4.5 6.96594 4.5C6.97387 4.5 6.98181 4.5 6.98977 4.5C6.99772 4.5 7.00568 4.5 7.01364 4.5C7.02161 4.5 7.02959 4.5 7.03757 4.5C7.04555 4.5 7.05354 4.5 7.06154 4.5C7.06954 4.5 7.07755 4.5 7.08557 4.5C7.09358 4.5 7.1016 4.5 7.10963 4.5C7.11766 4.5 7.1257 4.5 7.13375 4.5C7.14179 4.5 7.14985 4.5 7.15791 4.5C7.16597 4.5 7.17404 4.5 7.18211 4.5C7.19019 4.5 7.19828 4.5 7.20637 4.5C7.21446 4.5 7.22256 4.5 7.23066 4.5C7.23877 4.5 7.24688 4.5 7.25501 4.5C7.26313 4.5 7.27126 4.5 7.27939 4.5C7.28753 4.5 7.29567 4.5 7.30382 4.5C7.31197 4.5 7.32013 4.5 7.3283 4.5C7.33646 4.5 7.34463 4.5 7.35281 4.5C7.36099 4.5 7.36918 4.5 7.37737 4.5C7.38557 4.5 7.39377 4.5 7.40198 4.5C7.41019 4.5 7.4184 4.5 7.42662 4.5C7.43484 4.5 7.44307 4.5 7.45131 4.5C7.45955 4.5 7.46779 4.5 7.47604 4.5C7.48429 4.5 7.49254 4.5 7.50081 4.5C7.50907 4.5 7.51734 4.5 7.52562 4.5C7.5339 4.5 7.54218 4.5 7.55047 4.5C7.55876 4.5 7.56706 4.5 7.57536 4.5C7.58367 4.5 7.59198 4.5 7.60029 4.5C7.60861 4.5 7.61693 4.5 7.62526 4.5C7.63359 4.5 7.64193 4.5 7.65027 4.5C7.65862 4.5 7.66696 4.5 7.67532 4.5C7.68368 4.5 7.69204 4.5 7.70041 4.5C7.70878 4.5 7.71715 4.5 7.72553 4.5C7.73391 4.5 7.7423 4.5 7.75069 4.5C7.75909 4.5 7.76749 4.5 7.77589 4.5C7.7843 4.5 7.79271 4.5 7.80113 4.5C7.80955 4.5 7.81797 4.5 7.8264 4.5C7.83483 4.5 7.84327 4.5 7.85171 4.5C7.86015 4.5 7.8686 4.5 7.87705 4.5C7.88551 4.5 7.89397 4.5 7.90243 4.5C7.9109 4.5 7.91937 4.5 7.92785 4.5C7.93633 4.5 7.94481 4.5 7.9533 4.5C7.96179 4.5 7.97028 4.5 7.97878 4.5C7.98728 4.5 7.99579 4.5 8.0043 4.5C8.01281 4.5 8.02133 4.5 8.02985 4.5C8.03838 4.5 8.04691 4.5 8.05544 4.5C8.06397 4.5 8.07251 4.5 8.08106 4.5C8.0896 4.5 8.09815 4.5 8.10671 4.5C8.11526 4.5 8.12383 4.5 8.13239 4.5C8.14096 4.5 8.14953 4.5 8.15811 4.5C8.16668 4.5 8.17527 4.5 8.18385 4.5C8.19244 4.5 8.20103 4.5 8.20963 4.5C8.21823 4.5 8.22683 4.5 8.23544 4.5C8.24405 4.5 8.25266 4.5 8.26128 4.5C8.2699 4.5 8.27852 4.5 8.28715 4.5C8.29578 4.5 8.30441 4.5 8.31305 4.5C8.32168 4.5 8.33033 4.5 8.33897 4.5C8.34762 4.5 8.35627 4.5 8.36493 4.5C8.37359 4.5 8.38225 4.5 8.39092 4.5C8.39958 4.5 8.40826 4.5 8.41693 4.5C8.42561 4.5 8.43429 4.5 8.44297 4.5C8.45166 4.5 8.46035 4.5 8.46904 4.5C8.47774 4.5 8.48644 4.5 8.49514 4.5C8.50384 4.5 8.51255 4.5 8.52126 4.5C8.52998 4.5 8.53869 4.5 8.54742 4.5C8.55614 4.5 8.56486 4.5 8.57359 4.5C8.58232 4.5 8.59106 4.5 8.59979 4.5C8.60853 4.5 8.61727 4.5 8.62602 4.5C8.63477 4.5 8.64352 4.5 8.65227 4.5C8.66103 4.5 8.66979 4.5 8.67855 4.5C8.68732 4.5 8.69608 4.5 8.70485 4.5C8.71363 4.5 8.7224 4.5 8.73118 4.5C8.73996 4.5 8.74874 4.5 8.75753 4.5C8.76632 4.5 8.77511 4.5 8.7839 4.5C8.7927 4.5 8.8015 4.5 8.8103 4.5C8.8191 4.5 8.82791 4.5 8.83672 4.5C8.84553 4.5 8.85434 4.5 8.86316 4.5C8.87197 4.5 8.8808 4.5 8.88962 4.5C8.89844 4.5 8.90727 4.5 8.9161 4.5C8.92494 4.5 8.93377 4.5 8.94261 4.5C8.95145 4.5 8.96029 4.5 8.96914 4.5C8.97798 4.5 8.98683 4.5 8.99568 4.5C9.00453 4.5 9.01339 4.5 9.02225 4.5C9.03111 4.5 9.03997 4.5 9.04883 4.5C9.0577 4.5 9.06657 4.5 9.07544 4.5C9.08431 4.5 9.09319 4.5 9.10206 4.5C9.11094 4.5 9.11982 4.5 9.12871 4.5C9.13759 4.5 9.14648 4.5 9.15537 4.5C9.16426 4.5 9.17315 4.5 9.18205 4.5C9.19095 4.5 9.19984 4.5 9.20875 4.5C9.21765 4.5 9.22655 4.5 9.23546 4.5C9.24437 4.5 9.25328 4.5 9.26219 4.5C9.27111 4.5 9.28002 4.5 9.28894 4.5C9.29786 4.5 9.30678 4.5 9.3157 4.5C9.32463 4.5 9.33355 4.5 9.34248 4.5C9.35141 4.5 9.36034 4.5 9.36928 4.5C9.37821 4.5 9.38715 4.5 9.39609 4.5C9.40503 4.5 9.41397 4.5 9.42291 4.5C9.43186 4.5 9.4408 4.5 9.44975 4.5C9.4587 4.5 9.46765 4.5 9.47661 4.5C9.48556 4.5 9.49451 4.5 9.50347 4.5C9.51243 4.5 9.52139 4.5 9.53035 4.5C9.53931 4.5 9.54828 4.5 9.55725 4.5C9.56621 4.5 9.57518 4.5 9.58415 4.5C9.59312 4.5 9.60209 4.5 9.61107 4.5C9.62004 4.5 9.62902 4.5 9.638 4.5C9.64698 4.5 9.65596 4.5 9.66494 4.5C9.67392 4.5 9.68291 4.5 9.69189 4.5C9.70088 4.5 9.70987 4.5 9.71886 4.5C9.72784 4.5 9.73684 4.5 9.74583 4.5C9.75482 4.5 9.76382 4.5 9.77281 4.5C9.78181 4.5 9.79081 4.5 9.79981 4.5C9.8088 4.5 9.81781 4.5 9.82681 4.5C9.83581 4.5 9.84481 4.5 9.85382 4.5C9.86283 4.5 9.87183 4.5 9.88084 4.5C9.88985 4.5 9.89886 4.5 9.90787 4.5C9.91688 4.5 9.92589 4.5 9.93491 4.5C9.94392 4.5 9.95293 4.5 9.96195 4.5C9.97097 4.5 9.97998 4.5 9.989 4.5C9.99802 4.5 10.007 4.5 10.0161 4.5C10.0251 4.5 10.0341 4.5 10.0431 4.5C10.0521 4.5 10.0612 4.5 10.0702 4.5C10.0792 4.5 10.0882 4.5 10.0973 4.5C10.1063 4.5 10.1153 4.5 10.1244 4.5C10.1334 4.5 10.1424 4.5 10.1514 4.5C10.1605 4.5 10.1695 4.5 10.1785 4.5C10.1876 4.5 10.1966 4.5 10.2056 4.5C10.2147 4.5 10.2237 4.5 10.2327 4.5C10.2418 4.5 10.2508 4.5 10.2598 4.5C10.2689 4.5 10.2779 4.5 10.2869 4.5C10.296 4.5 10.305 4.5 10.314 4.5C10.3231 4.5 10.3321 4.5 10.3412 4.5C10.3502 4.5 10.3592 4.5 10.3683 4.5C10.3773 4.5 10.3864 4.5 10.3954 4.5C10.4044 4.5 10.4135 4.5 10.4225 4.5C10.4315 4.5 10.4406 4.5 10.4496 4.5C10.4587 4.5 10.4677 4.5 10.4767 4.5C10.4858 4.5 10.4948 4.5 10.5039 4.5C10.5129 4.5 10.5219 4.5 10.531 4.5C10.54 4.5 10.5491 4.5 10.5581 4.5C10.5671 4.5 10.5762 4.5 10.5852 4.5C10.5943 4.5 10.6033 4.5 10.6123 4.5C10.6214 4.5 10.6304 4.5 10.6395 4.5C10.6485 4.5 10.6575 4.5 10.6666 4.5C10.6756 4.5 10.6847 4.5 10.6937 4.5C10.7027 4.5 10.7118 4.5 10.7208 4.5C10.7298 4.5 10.7389 4.5 10.7479 4.5C10.7569 4.5 10.766 4.5 10.775 4.5C10.784 4.5 10.7931 4.5 10.8021 4.5C10.8111 4.5 10.8202 4.5 10.8292 4.5C10.8382 4.5 10.8473 4.5 10.8563 4.5C10.8653 4.5 10.8744 4.5 10.8834 4.5C10.8924 4.5 10.9015 4.5 10.9105 4.5C10.9195 4.5 10.9285 4.5 10.9376 4.5C10.9466 4.5 10.9556 4.5 10.9646 4.5C10.9737 4.5 10.9827 4.5 10.9917 4.5C11.0007 4.5 11.0097 4.5 11.0188 4.5C11.0278 4.5 11.0368 4.5 11.0458 4.5C11.0548 4.5 11.0638 4.5 11.0729 4.5C11.0819 4.5 11.0909 4.5 11.0999 4.5C11.1089 4.5 11.1179 4.5 11.1269 4.5C11.1359 4.5 11.1449 4.5 11.1539 4.5C11.163 4.5 11.172 4.5 11.181 4.5C11.19 4.5 11.199 4.5 11.208 4.5C11.217 4.5 11.226 4.5 11.235 4.5C11.244 4.5 11.253 4.5 11.262 4.5C11.2709 4.5 11.2799 4.5 11.2889 4.5C11.2979 4.5 11.3069 4.5 11.3159 4.5C11.3249 4.5 11.3339 4.5 11.3428 4.5C11.3518 4.5 11.3608 4.5 11.3698 4.5C11.3788 4.5 11.3878 4.5 11.3967 4.5C11.4057 4.5 11.4147 4.5 11.4236 4.5C11.4326 4.5 11.4416 4.5 11.4506 4.5C11.4595 4.5 11.4685 4.5 11.4775 4.5C11.4864 4.5 11.4954 4.5 11.5043 4.5C11.5133 4.5 11.5223 4.5 11.5312 4.5C11.5402 4.5 11.5491 4.5 11.5581 4.5C11.567 4.5 11.576 4.5 11.5849 4.5C11.5939 4.5 11.6028 4.5 11.6117 4.5C11.6207 4.5 11.6296 4.5 11.6386 4.5C11.6475 4.5 11.6564 4.5 11.6654 4.5C11.6743 4.5 11.6832 4.5 11.6921 4.5C11.7011 4.5 11.71 4.5 11.7189 4.5C11.7278 4.5 11.7367 4.5 11.7457 4.5C11.7546 4.5 11.7635 4.5 11.7724 4.5C11.7813 4.5 11.7902 4.5 11.7991 4.5C11.808 4.5 11.8169 4.5 11.8258 4.5C11.8347 4.5 11.8436 4.5 11.8525 4.5C11.8614 4.5 11.8703 4.5 11.8792 4.5C11.8881 4.5 11.8969 4.5 11.9058 4.5C11.9147 4.5 11.9236 4.5 11.9324 4.5C11.9413 4.5 11.9502 4.5 11.9591 4.5C11.9679 4.5 11.9768 4.5 11.9857 4.5C11.9945 4.5 12.0034 4.5 12.0122 4.5C12.0211 4.5 12.0299 4.5 12.0388 4.5C12.0476 4.5 12.0565 4.5 12.0653 4.5C12.0742 4.5 12.083 4.5 12.0918 4.5C12.1007 4.5 12.1095 4.5 12.1183 4.5C12.1271 4.5 12.136 4.5 12.1448 4.5C12.1536 4.5 12.1624 4.5 12.1712 4.5C12.18 4.5 12.1888 4.5 12.1977 4.5C12.2065 4.5 12.2153 4.5 12.2241 4.5C12.2329 4.5 12.2416 4.5 12.2504 4.5C12.2592 4.5 12.268 4.5 12.2768 4.5C12.2856 4.5 12.2944 4.5 12.3031 4.5C12.3119 4.5 12.3207 4.5 12.3294 4.5C12.3382 4.5 12.347 4.5 12.3557 4.5C12.3645 4.5 12.3732 4.5 12.382 4.5C12.3907 4.5 12.3995 4.5 12.4082 4.5C12.417 4.5 12.4257 4.5 12.4344 4.5C12.4432 4.5 12.4519 4.5 12.4606 4.5C12.4693 4.5 12.4781 4.5 12.4868 4.5C12.4955 4.5 12.5042 4.5 12.5129 4.5C12.5216 4.5 12.5303 4.5 12.539 4.5C12.5477 4.5 12.5564 4.5 12.5651 4.5C12.5738 4.5 12.5825 4.5 12.5911 4.5C12.5998 4.5 12.6085 4.5 12.6172 4.5C12.6258 4.5 12.6345 4.5 12.6432 4.5C12.6518 4.5 12.6605 4.5 12.6691 4.5C12.6778 4.5 12.6864 4.5 12.6951 4.5C12.7037 4.5 12.7123 4.5 12.721 4.5C12.7296 4.5 12.7382 4.5 12.7468 4.5C12.7555 4.5 12.7641 4.5 12.7727 4.5C12.7813 4.5 12.7899 4.5 12.7985 4.5C12.8071 4.5 12.8157 4.5 12.8243 4.5C12.8329 4.5 12.8415 4.5 12.85 4.5C12.8586 4.5 12.8672 4.5 12.8758 4.5C12.8843 4.5 12.8929 4.5 12.9015 4.5C12.91 4.5 12.9186 4.5 12.9271 4.5C12.9357 4.5 12.9442 4.5 12.9528 4.5C12.9613 4.5 12.9698 4.5 12.9784 4.5C12.9869 4.5 12.9954 4.5 13.0039 4.5C13.0124 4.5 13.0209 4.5 13.0294 4.5C13.0379 4.5 13.0464 4.5 13.0549 4.5C13.0634 4.5 13.0719 4.5 13.0804 4.5C13.0889 4.5 13.0974 4.5 13.1058 4.5C13.1143 4.5 13.1228 4.5 13.1312 4.5C13.1397 4.5 13.1481 4.5 13.1566 4.5C13.165 4.5 13.1735 4.5 13.1819 4.5C13.1903 4.5 13.1988 4.5 13.2072 4.5C13.2156 4.5 13.224 4.5 13.2324 4.5C13.2408 4.5 13.2492 4.5 13.2576 4.5C13.266 4.5 13.2744 4.5 13.2828 4.5C13.2912 4.5 13.2996 4.5 13.3079 4.5C13.3163 4.5 13.3247 4.5 13.333 4.5C13.3414 4.5 13.3498 4.5 13.3581 4.5C13.3664 4.5 13.3748 4.5 13.3831 4.5C13.3915 4.5 13.3998 4.5 13.4081 4.5C13.4164 4.5 13.4247 4.5 13.433 4.5C13.4414 4.5 13.4497 4.5 13.4579 4.5C13.4662 4.5 13.4745 4.5 13.4828 4.5C13.4911 4.5 13.4994 4.5 13.5076 4.5C13.5159 4.5 13.5242 4.5 13.5324 4.5C13.5407 4.5 13.5489 4.5 13.5572 4.5C13.5654 4.5 13.5736 4.5 13.5819 4.5C13.5901 4.5 13.5983 4.5 13.6065 4.5C13.6147 4.5 13.6229 4.5 13.6311 4.5C13.6393 4.5 13.6475 4.5 13.6557 4.5C13.6639 4.5 13.6721 4.5 13.6802 4.5C13.6884 4.5 13.6966 4.5 13.7047 4.5C13.7129 4.5 13.721 4.5 13.7292 4.5C13.7373 4.5 13.7454 4.5 13.7536 4.5C13.7617 4.5 13.7698 4.5 13.7779 4.5C13.786 4.5 13.7941 4.5 13.8022 4.5C13.8103 4.5 13.8184 4.5 13.8265 4.5C13.8346 4.5 13.8427 4.5 13.8507 4.5C13.8588 4.5 13.8668 4.5 13.8749 4.5C13.8829 4.5 13.891 4.5 13.899 4.5C13.9071 4.5 13.9151 4.5 13.9231 4.5C13.9311 4.5 13.9391 4.5 13.9471 4.5C13.9551 4.5 13.9631 4.5 13.9711 4.5C13.9791 4.5 13.9871 4.5 13.9951 4.5C14.003 4.5 14.011 4.5 14.019 4.5C14.0269 4.5 14.0349 4.5 14.0428 4.5C14.0507 4.5 14.0587 4.5 14.0666 4.5C14.0745 4.5 14.0824 4.5 14.0903 4.5C14.0983 4.5 14.1062 4.5 14.114 4.5C14.1219 4.5 14.1298 4.5 14.1377 4.5C14.1456 4.5 14.1534 4.5 14.1613 4.5C14.1691 4.5 14.177 4.5 14.1848 4.5C14.1927 4.5 14.2005 4.5 14.2083 4.5C14.2162 4.5 14.224 4.5 14.2318 4.5C14.2396 4.5 14.2474 4.5 14.2552 4.5C14.263 4.5 14.2707 4.5 14.2785 4.5C14.2863 4.5 14.2941 4.5 14.3018 4.5C14.3096 4.5 14.3173 4.5 14.325 4.5C14.3328 4.5 14.3405 4.5 14.3482 4.5C14.356 4.5 14.3637 4.5 14.3714 4.5C14.3791 4.5 14.3868 4.5 14.3944 4.5C14.4021 4.5 14.4098 4.5 14.4175 4.5C14.4251 4.5 14.4328 4.5 14.4404 4.5C14.4481 4.5 14.4557 4.5 14.4634 4.5C14.471 4.5 14.4786 4.5 14.4862 4.5C14.4938 4.5 14.5014 4.5 14.509 4.5C14.5166 4.5 14.5242 4.5 14.5318 4.5C14.5393 4.5 14.5469 4.5 14.5545 4.5C14.562 4.5 14.5696 4.5 14.5771 4.5C14.5846 4.5 14.5922 4.5 14.5997 4.5C14.6072 4.5 14.6147 4.5 14.6222 4.5C14.6297 4.5 14.6372 4.5 14.6447 4.5C14.6521 4.5 14.6596 4.5 14.6671 4.5C14.6745 4.5 14.682 4.5 14.6894 4.5C14.6969 4.5 14.7043 4.5 14.7117 4.5C14.7191 4.5 14.7265 4.5 14.7339 4.5C14.7413 4.5 14.7487 4.5 14.7561 4.5C14.7635 4.5 14.7709 4.5 14.7782 4.5C14.7856 4.5 14.7929 4.5 14.8003 4.5C14.8076 4.5 14.815 4.5 14.8223 4.5C14.8296 4.5 14.8369 4.5 14.8442 4.5C14.8515 4.5 14.8588 4.5 14.8661 4.5C14.8734 4.5 14.8806 4.5 14.8879 4.5C14.8951 4.5 14.9024 4.5 14.9096 4.5C14.9169 4.5 14.9241 4.5 14.9313 4.5C14.9385 4.5 14.9457 4.5 14.9529 4.5C14.9601 4.5 14.9673 4.5 14.9745 4.5C14.9817 4.5 14.9888 4.5 14.996 4.5C15.0031 4.5 15.0103 4.5 15.0174 4.5C15.0246 4.5 15.0317 4.5 15.0388 4.5C15.0459 4.5 15.053 4.5 15.0601 4.5C15.0672 4.5 15.0743 4.5 15.0813 4.5C15.0884 4.5 15.0955 4.5 15.1025 4.5C15.1096 4.5 15.1166 4.5 15.1236 4.5C15.1306 4.5 15.1377 4.5 15.1447 4.5C15.1517 4.5 15.1587 4.5 15.1656 4.5C15.1726 4.5 15.1796 4.5 15.1866 4.5C15.1935 4.5 15.2005 4.5 15.2074 4.5C15.2143 4.5 15.2213 4.5 15.2282 4.5C15.2351 4.5 15.242 4.5 15.2489 4.5C15.2558 4.5 15.2627 4.5 15.2695 4.5C15.2764 4.5 15.2833 4.5 15.2901 4.5C15.2969 4.5 15.3038 4.5 15.3106 4.5C15.3174 4.5 15.3242 4.5 15.331 4.5C15.3378 4.5 15.3446 4.5 15.3514 4.5C15.3582 4.5 15.3649 4.5 15.3717 4.5C15.3785 4.5 15.3852 4.5 15.3919 4.5C15.3987 4.5 15.4054 4.5 15.4121 4.5C15.4188 4.5 15.4255 4.5 15.4322 4.5C15.4389 4.5 15.4455 4.5 15.4522 4.5C15.4588 4.5 15.4655 4.5 15.4721 4.5C15.4788 4.5 15.4854 4.5 15.492 4.5C15.4986 4.5 15.5052 4.5 15.5118 4.5C15.5184 4.5 15.525 4.5 15.5315 4.5C15.5381 4.5 15.5446 4.5 15.5512 4.5C15.5577 4.5 15.5642 4.5 15.5708 4.5C15.5773 4.5 15.5838 4.5 15.5903 4.5C15.5968 4.5 15.6032 4.5 15.6097 4.5C15.6162 4.5 15.6226 4.5 15.6291 4.5C15.6355 4.5 15.6419 4.5 15.6483 4.5C15.6548 4.5 15.6612 4.5 15.6675 4.5C15.6739 4.5 15.6803 4.5 15.6867 4.5C15.693 4.5 15.6994 4.5 15.7057 4.5C15.7121 4.5 15.7184 4.5 15.7247 4.5C15.731 4.5 15.7373 4.5 15.7436 4.5C15.7499 4.5 15.7562 4.5 15.7625 4.5C15.7687 4.5 15.775 4.5 15.7812 4.5C15.7874 4.5 15.7937 4.5 15.7999 4.5C15.8061 4.5 15.8123 4.5 15.8185 4.5C15.8247 4.5 15.8308 4.5 15.837 4.5C15.8431 4.5 15.8493 4.5 15.8554 4.5C15.8616 4.5 15.8677 4.5 15.8738 4.5C15.8799 4.5 15.886 4.5 15.8921 4.5C15.8981 4.5 15.9042 4.5 15.9103 4.5C15.9163 4.5 15.9224 4.5 15.9284 4.5C15.9344 4.5 15.9404 4.5 15.9464 4.5C15.9524 4.5 15.9584 4.5 15.9644 4.5C15.9704 4.5 15.9763 4.5 15.9823 4.5C15.9882 4.5 15.9941 4.5 16.0001 4.5V3.5C15.9941 3.5 15.9882 3.5 15.9823 3.5C15.9763 3.5 15.9704 3.5 15.9644 3.5C15.9584 3.5 15.9524 3.5 15.9464 3.5C15.9404 3.5 15.9344 3.5 15.9284 3.5C15.9224 3.5 15.9163 3.5 15.9103 3.5C15.9042 3.5 15.8981 3.5 15.8921 3.5C15.886 3.5 15.8799 3.5 15.8738 3.5C15.8677 3.5 15.8616 3.5 15.8554 3.5C15.8493 3.5 15.8431 3.5 15.837 3.5C15.8308 3.5 15.8247 3.5 15.8185 3.5C15.8123 3.5 15.8061 3.5 15.7999 3.5C15.7937 3.5 15.7874 3.5 15.7812 3.5C15.775 3.5 15.7687 3.5 15.7625 3.5C15.7562 3.5 15.7499 3.5 15.7436 3.5C15.7373 3.5 15.731 3.5 15.7247 3.5C15.7184 3.5 15.7121 3.5 15.7057 3.5C15.6994 3.5 15.693 3.5 15.6867 3.5C15.6803 3.5 15.6739 3.5 15.6675 3.5C15.6612 3.5 15.6548 3.5 15.6483 3.5C15.6419 3.5 15.6355 3.5 15.6291 3.5C15.6226 3.5 15.6162 3.5 15.6097 3.5C15.6032 3.5 15.5968 3.5 15.5903 3.5C15.5838 3.5 15.5773 3.5 15.5708 3.5C15.5642 3.5 15.5577 3.5 15.5512 3.5C15.5446 3.5 15.5381 3.5 15.5315 3.5C15.525 3.5 15.5184 3.5 15.5118 3.5C15.5052 3.5 15.4986 3.5 15.492 3.5C15.4854 3.5 15.4788 3.5 15.4721 3.5C15.4655 3.5 15.4588 3.5 15.4522 3.5C15.4455 3.5 15.4389 3.5 15.4322 3.5C15.4255 3.5 15.4188 3.5 15.4121 3.5C15.4054 3.5 15.3987 3.5 15.3919 3.5C15.3852 3.5 15.3785 3.5 15.3717 3.5C15.3649 3.5 15.3582 3.5 15.3514 3.5C15.3446 3.5 15.3378 3.5 15.331 3.5C15.3242 3.5 15.3174 3.5 15.3106 3.5C15.3038 3.5 15.2969 3.5 15.2901 3.5C15.2833 3.5 15.2764 3.5 15.2695 3.5C15.2627 3.5 15.2558 3.5 15.2489 3.5C15.242 3.5 15.2351 3.5 15.2282 3.5C15.2213 3.5 15.2143 3.5 15.2074 3.5C15.2005 3.5 15.1935 3.5 15.1866 3.5C15.1796 3.5 15.1726 3.5 15.1656 3.5C15.1587 3.5 15.1517 3.5 15.1447 3.5C15.1377 3.5 15.1306 3.5 15.1236 3.5C15.1166 3.5 15.1096 3.5 15.1025 3.5C15.0955 3.5 15.0884 3.5 15.0813 3.5C15.0743 3.5 15.0672 3.5 15.0601 3.5C15.053 3.5 15.0459 3.5 15.0388 3.5C15.0317 3.5 15.0246 3.5 15.0174 3.5C15.0103 3.5 15.0031 3.5 14.996 3.5C14.9888 3.5 14.9817 3.5 14.9745 3.5C14.9673 3.5 14.9601 3.5 14.9529 3.5C14.9457 3.5 14.9385 3.5 14.9313 3.5C14.9241 3.5 14.9169 3.5 14.9096 3.5C14.9024 3.5 14.8951 3.5 14.8879 3.5C14.8806 3.5 14.8734 3.5 14.8661 3.5C14.8588 3.5 14.8515 3.5 14.8442 3.5C14.8369 3.5 14.8296 3.5 14.8223 3.5C14.815 3.5 14.8076 3.5 14.8003 3.5C14.7929 3.5 14.7856 3.5 14.7782 3.5C14.7709 3.5 14.7635 3.5 14.7561 3.5C14.7487 3.5 14.7413 3.5 14.7339 3.5C14.7265 3.5 14.7191 3.5 14.7117 3.5C14.7043 3.5 14.6969 3.5 14.6894 3.5C14.682 3.5 14.6745 3.5 14.6671 3.5C14.6596 3.5 14.6521 3.5 14.6447 3.5C14.6372 3.5 14.6297 3.5 14.6222 3.5C14.6147 3.5 14.6072 3.5 14.5997 3.5C14.5922 3.5 14.5846 3.5 14.5771 3.5C14.5696 3.5 14.562 3.5 14.5545 3.5C14.5469 3.5 14.5393 3.5 14.5318 3.5C14.5242 3.5 14.5166 3.5 14.509 3.5C14.5014 3.5 14.4938 3.5 14.4862 3.5C14.4786 3.5 14.471 3.5 14.4634 3.5C14.4557 3.5 14.4481 3.5 14.4404 3.5C14.4328 3.5 14.4251 3.5 14.4175 3.5C14.4098 3.5 14.4021 3.5 14.3944 3.5C14.3868 3.5 14.3791 3.5 14.3714 3.5C14.3637 3.5 14.356 3.5 14.3482 3.5C14.3405 3.5 14.3328 3.5 14.325 3.5C14.3173 3.5 14.3096 3.5 14.3018 3.5C14.2941 3.5 14.2863 3.5 14.2785 3.5C14.2707 3.5 14.263 3.5 14.2552 3.5C14.2474 3.5 14.2396 3.5 14.2318 3.5C14.224 3.5 14.2162 3.5 14.2083 3.5C14.2005 3.5 14.1927 3.5 14.1848 3.5C14.177 3.5 14.1691 3.5 14.1613 3.5C14.1534 3.5 14.1456 3.5 14.1377 3.5C14.1298 3.5 14.1219 3.5 14.114 3.5C14.1062 3.5 14.0983 3.5 14.0903 3.5C14.0824 3.5 14.0745 3.5 14.0666 3.5C14.0587 3.5 14.0507 3.5 14.0428 3.5C14.0349 3.5 14.0269 3.5 14.019 3.5C14.011 3.5 14.003 3.5 13.9951 3.5C13.9871 3.5 13.9791 3.5 13.9711 3.5C13.9631 3.5 13.9551 3.5 13.9471 3.5C13.9391 3.5 13.9311 3.5 13.9231 3.5C13.9151 3.5 13.9071 3.5 13.899 3.5C13.891 3.5 13.8829 3.5 13.8749 3.5C13.8668 3.5 13.8588 3.5 13.8507 3.5C13.8427 3.5 13.8346 3.5 13.8265 3.5C13.8184 3.5 13.8103 3.5 13.8022 3.5C13.7941 3.5 13.786 3.5 13.7779 3.5C13.7698 3.5 13.7617 3.5 13.7536 3.5C13.7454 3.5 13.7373 3.5 13.7292 3.5C13.721 3.5 13.7129 3.5 13.7047 3.5C13.6966 3.5 13.6884 3.5 13.6802 3.5C13.6721 3.5 13.6639 3.5 13.6557 3.5C13.6475 3.5 13.6393 3.5 13.6311 3.5C13.6229 3.5 13.6147 3.5 13.6065 3.5C13.5983 3.5 13.5901 3.5 13.5819 3.5C13.5736 3.5 13.5654 3.5 13.5572 3.5C13.5489 3.5 13.5407 3.5 13.5324 3.5C13.5242 3.5 13.5159 3.5 13.5076 3.5C13.4994 3.5 13.4911 3.5 13.4828 3.5C13.4745 3.5 13.4662 3.5 13.4579 3.5C13.4497 3.5 13.4414 3.5 13.433 3.5C13.4247 3.5 13.4164 3.5 13.4081 3.5C13.3998 3.5 13.3915 3.5 13.3831 3.5C13.3748 3.5 13.3664 3.5 13.3581 3.5C13.3498 3.5 13.3414 3.5 13.333 3.5C13.3247 3.5 13.3163 3.5 13.3079 3.5C13.2996 3.5 13.2912 3.5 13.2828 3.5C13.2744 3.5 13.266 3.5 13.2576 3.5C13.2492 3.5 13.2408 3.5 13.2324 3.5C13.224 3.5 13.2156 3.5 13.2072 3.5C13.1988 3.5 13.1903 3.5 13.1819 3.5C13.1735 3.5 13.165 3.5 13.1566 3.5C13.1481 3.5 13.1397 3.5 13.1312 3.5C13.1228 3.5 13.1143 3.5 13.1058 3.5C13.0974 3.5 13.0889 3.5 13.0804 3.5C13.0719 3.5 13.0634 3.5 13.0549 3.5C13.0464 3.5 13.0379 3.5 13.0294 3.5C13.0209 3.5 13.0124 3.5 13.0039 3.5C12.9954 3.5 12.9869 3.5 12.9784 3.5C12.9698 3.5 12.9613 3.5 12.9528 3.5C12.9442 3.5 12.9357 3.5 12.9271 3.5C12.9186 3.5 12.91 3.5 12.9015 3.5C12.8929 3.5 12.8843 3.5 12.8758 3.5C12.8672 3.5 12.8586 3.5 12.85 3.5C12.8415 3.5 12.8329 3.5 12.8243 3.5C12.8157 3.5 12.8071 3.5 12.7985 3.5C12.7899 3.5 12.7813 3.5 12.7727 3.5C12.7641 3.5 12.7555 3.5 12.7468 3.5C12.7382 3.5 12.7296 3.5 12.721 3.5C12.7123 3.5 12.7037 3.5 12.6951 3.5C12.6864 3.5 12.6778 3.5 12.6691 3.5C12.6605 3.5 12.6518 3.5 12.6432 3.5C12.6345 3.5 12.6258 3.5 12.6172 3.5C12.6085 3.5 12.5998 3.5 12.5911 3.5C12.5825 3.5 12.5738 3.5 12.5651 3.5C12.5564 3.5 12.5477 3.5 12.539 3.5C12.5303 3.5 12.5216 3.5 12.5129 3.5C12.5042 3.5 12.4955 3.5 12.4868 3.5C12.4781 3.5 12.4693 3.5 12.4606 3.5C12.4519 3.5 12.4432 3.5 12.4344 3.5C12.4257 3.5 12.417 3.5 12.4082 3.5C12.3995 3.5 12.3907 3.5 12.382 3.5C12.3732 3.5 12.3645 3.5 12.3557 3.5C12.347 3.5 12.3382 3.5 12.3294 3.5C12.3207 3.5 12.3119 3.5 12.3031 3.5C12.2944 3.5 12.2856 3.5 12.2768 3.5C12.268 3.5 12.2592 3.5 12.2504 3.5C12.2416 3.5 12.2329 3.5 12.2241 3.5C12.2153 3.5 12.2065 3.5 12.1977 3.5C12.1888 3.5 12.18 3.5 12.1712 3.5C12.1624 3.5 12.1536 3.5 12.1448 3.5C12.136 3.5 12.1271 3.5 12.1183 3.5C12.1095 3.5 12.1007 3.5 12.0918 3.5C12.083 3.5 12.0742 3.5 12.0653 3.5C12.0565 3.5 12.0476 3.5 12.0388 3.5C12.0299 3.5 12.0211 3.5 12.0122 3.5C12.0034 3.5 11.9945 3.5 11.9857 3.5C11.9768 3.5 11.9679 3.5 11.9591 3.5C11.9502 3.5 11.9413 3.5 11.9324 3.5C11.9236 3.5 11.9147 3.5 11.9058 3.5C11.8969 3.5 11.8881 3.5 11.8792 3.5C11.8703 3.5 11.8614 3.5 11.8525 3.5C11.8436 3.5 11.8347 3.5 11.8258 3.5C11.8169 3.5 11.808 3.5 11.7991 3.5C11.7902 3.5 11.7813 3.5 11.7724 3.5C11.7635 3.5 11.7546 3.5 11.7457 3.5C11.7367 3.5 11.7278 3.5 11.7189 3.5C11.71 3.5 11.7011 3.5 11.6921 3.5C11.6832 3.5 11.6743 3.5 11.6654 3.5C11.6564 3.5 11.6475 3.5 11.6386 3.5C11.6296 3.5 11.6207 3.5 11.6117 3.5C11.6028 3.5 11.5939 3.5 11.5849 3.5C11.576 3.5 11.567 3.5 11.5581 3.5C11.5491 3.5 11.5402 3.5 11.5312 3.5C11.5223 3.5 11.5133 3.5 11.5043 3.5C11.4954 3.5 11.4864 3.5 11.4775 3.5C11.4685 3.5 11.4595 3.5 11.4506 3.5C11.4416 3.5 11.4326 3.5 11.4236 3.5C11.4147 3.5 11.4057 3.5 11.3967 3.5C11.3878 3.5 11.3788 3.5 11.3698 3.5C11.3608 3.5 11.3518 3.5 11.3428 3.5C11.3339 3.5 11.3249 3.5 11.3159 3.5C11.3069 3.5 11.2979 3.5 11.2889 3.5C11.2799 3.5 11.2709 3.5 11.262 3.5C11.253 3.5 11.244 3.5 11.235 3.5C11.226 3.5 11.217 3.5 11.208 3.5C11.199 3.5 11.19 3.5 11.181 3.5C11.172 3.5 11.163 3.5 11.1539 3.5C11.1449 3.5 11.1359 3.5 11.1269 3.5C11.1179 3.5 11.1089 3.5 11.0999 3.5C11.0909 3.5 11.0819 3.5 11.0729 3.5C11.0638 3.5 11.0548 3.5 11.0458 3.5C11.0368 3.5 11.0278 3.5 11.0188 3.5C11.0097 3.5 11.0007 3.5 10.9917 3.5C10.9827 3.5 10.9737 3.5 10.9646 3.5C10.9556 3.5 10.9466 3.5 10.9376 3.5C10.9285 3.5 10.9195 3.5 10.9105 3.5C10.9015 3.5 10.8924 3.5 10.8834 3.5C10.8744 3.5 10.8653 3.5 10.8563 3.5C10.8473 3.5 10.8382 3.5 10.8292 3.5C10.8202 3.5 10.8111 3.5 10.8021 3.5C10.7931 3.5 10.784 3.5 10.775 3.5C10.766 3.5 10.7569 3.5 10.7479 3.5C10.7389 3.5 10.7298 3.5 10.7208 3.5C10.7118 3.5 10.7027 3.5 10.6937 3.5C10.6847 3.5 10.6756 3.5 10.6666 3.5C10.6575 3.5 10.6485 3.5 10.6395 3.5C10.6304 3.5 10.6214 3.5 10.6123 3.5C10.6033 3.5 10.5943 3.5 10.5852 3.5C10.5762 3.5 10.5671 3.5 10.5581 3.5C10.5491 3.5 10.54 3.5 10.531 3.5C10.5219 3.5 10.5129 3.5 10.5039 3.5C10.4948 3.5 10.4858 3.5 10.4767 3.5C10.4677 3.5 10.4587 3.5 10.4496 3.5C10.4406 3.5 10.4315 3.5 10.4225 3.5C10.4135 3.5 10.4044 3.5 10.3954 3.5C10.3864 3.5 10.3773 3.5 10.3683 3.5C10.3592 3.5 10.3502 3.5 10.3412 3.5C10.3321 3.5 10.3231 3.5 10.314 3.5C10.305 3.5 10.296 3.5 10.2869 3.5C10.2779 3.5 10.2689 3.5 10.2598 3.5C10.2508 3.5 10.2418 3.5 10.2327 3.5C10.2237 3.5 10.2147 3.5 10.2056 3.5C10.1966 3.5 10.1876 3.5 10.1785 3.5C10.1695 3.5 10.1605 3.5 10.1514 3.5C10.1424 3.5 10.1334 3.5 10.1244 3.5C10.1153 3.5 10.1063 3.5 10.0973 3.5C10.0882 3.5 10.0792 3.5 10.0702 3.5C10.0612 3.5 10.0521 3.5 10.0431 3.5C10.0341 3.5 10.0251 3.5 10.0161 3.5C10.007 3.5 9.99802 3.5 9.989 3.5C9.97998 3.5 9.97097 3.5 9.96195 3.5C9.95293 3.5 9.94392 3.5 9.93491 3.5C9.92589 3.5 9.91688 3.5 9.90787 3.5C9.89886 3.5 9.88985 3.5 9.88084 3.5C9.87183 3.5 9.86283 3.5 9.85382 3.5C9.84481 3.5 9.83581 3.5 9.82681 3.5C9.81781 3.5 9.8088 3.5 9.79981 3.5C9.79081 3.5 9.78181 3.5 9.77281 3.5C9.76382 3.5 9.75482 3.5 9.74583 3.5C9.73684 3.5 9.72784 3.5 9.71886 3.5C9.70987 3.5 9.70088 3.5 9.69189 3.5C9.68291 3.5 9.67392 3.5 9.66494 3.5C9.65596 3.5 9.64698 3.5 9.638 3.5C9.62902 3.5 9.62004 3.5 9.61107 3.5C9.60209 3.5 9.59312 3.5 9.58415 3.5C9.57518 3.5 9.56621 3.5 9.55725 3.5C9.54828 3.5 9.53931 3.5 9.53035 3.5C9.52139 3.5 9.51243 3.5 9.50347 3.5C9.49451 3.5 9.48556 3.5 9.47661 3.5C9.46765 3.5 9.4587 3.5 9.44975 3.5C9.4408 3.5 9.43186 3.5 9.42291 3.5C9.41397 3.5 9.40503 3.5 9.39609 3.5C9.38715 3.5 9.37821 3.5 9.36928 3.5C9.36034 3.5 9.35141 3.5 9.34248 3.5C9.33355 3.5 9.32463 3.5 9.3157 3.5C9.30678 3.5 9.29786 3.5 9.28894 3.5C9.28002 3.5 9.27111 3.5 9.26219 3.5C9.25328 3.5 9.24437 3.5 9.23546 3.5C9.22655 3.5 9.21765 3.5 9.20875 3.5C9.19984 3.5 9.19095 3.5 9.18205 3.5C9.17315 3.5 9.16426 3.5 9.15537 3.5C9.14648 3.5 9.13759 3.5 9.12871 3.5C9.11982 3.5 9.11094 3.5 9.10206 3.5C9.09319 3.5 9.08431 3.5 9.07544 3.5C9.06657 3.5 9.0577 3.5 9.04883 3.5C9.03997 3.5 9.03111 3.5 9.02225 3.5C9.01339 3.5 9.00453 3.5 8.99568 3.5C8.98683 3.5 8.97798 3.5 8.96914 3.5C8.96029 3.5 8.95145 3.5 8.94261 3.5C8.93377 3.5 8.92494 3.5 8.9161 3.5C8.90727 3.5 8.89844 3.5 8.88962 3.5C8.8808 3.5 8.87197 3.5 8.86316 3.5C8.85434 3.5 8.84553 3.5 8.83672 3.5C8.82791 3.5 8.8191 3.5 8.8103 3.5C8.8015 3.5 8.7927 3.5 8.7839 3.5C8.77511 3.5 8.76632 3.5 8.75753 3.5C8.74874 3.5 8.73996 3.5 8.73118 3.5C8.7224 3.5 8.71363 3.5 8.70485 3.5C8.69608 3.5 8.68732 3.5 8.67855 3.5C8.66979 3.5 8.66103 3.5 8.65227 3.5C8.64352 3.5 8.63477 3.5 8.62602 3.5C8.61727 3.5 8.60853 3.5 8.59979 3.5C8.59106 3.5 8.58232 3.5 8.57359 3.5C8.56486 3.5 8.55614 3.5 8.54742 3.5C8.53869 3.5 8.52998 3.5 8.52126 3.5C8.51255 3.5 8.50384 3.5 8.49514 3.5C8.48644 3.5 8.47774 3.5 8.46904 3.5C8.46035 3.5 8.45166 3.5 8.44297 3.5C8.43429 3.5 8.42561 3.5 8.41693 3.5C8.40826 3.5 8.39958 3.5 8.39092 3.5C8.38225 3.5 8.37359 3.5 8.36493 3.5C8.35627 3.5 8.34762 3.5 8.33897 3.5C8.33033 3.5 8.32168 3.5 8.31305 3.5C8.30441 3.5 8.29578 3.5 8.28715 3.5C8.27852 3.5 8.2699 3.5 8.26128 3.5C8.25266 3.5 8.24405 3.5 8.23544 3.5C8.22683 3.5 8.21823 3.5 8.20963 3.5C8.20103 3.5 8.19244 3.5 8.18385 3.5C8.17527 3.5 8.16668 3.5 8.15811 3.5C8.14953 3.5 8.14096 3.5 8.13239 3.5C8.12383 3.5 8.11526 3.5 8.10671 3.5C8.09815 3.5 8.0896 3.5 8.08106 3.5C8.07251 3.5 8.06397 3.5 8.05544 3.5C8.04691 3.5 8.03838 3.5 8.02985 3.5C8.02133 3.5 8.01281 3.5 8.0043 3.5C7.99579 3.5 7.98728 3.5 7.97878 3.5C7.97028 3.5 7.96179 3.5 7.9533 3.5C7.94481 3.5 7.93633 3.5 7.92785 3.5C7.91937 3.5 7.9109 3.5 7.90243 3.5C7.89397 3.5 7.88551 3.5 7.87705 3.5C7.8686 3.5 7.86015 3.5 7.85171 3.5C7.84327 3.5 7.83483 3.5 7.8264 3.5C7.81797 3.5 7.80955 3.5 7.80113 3.5C7.79271 3.5 7.7843 3.5 7.77589 3.5C7.76749 3.5 7.75909 3.5 7.75069 3.5C7.7423 3.5 7.73391 3.5 7.72553 3.5C7.71715 3.5 7.70878 3.5 7.70041 3.5C7.69204 3.5 7.68368 3.5 7.67532 3.5C7.66696 3.5 7.65862 3.5 7.65027 3.5C7.64193 3.5 7.63359 3.5 7.62526 3.5C7.61693 3.5 7.60861 3.5 7.60029 3.5C7.59198 3.5 7.58367 3.5 7.57536 3.5C7.56706 3.5 7.55876 3.5 7.55047 3.5C7.54218 3.5 7.5339 3.5 7.52562 3.5C7.51734 3.5 7.50907 3.5 7.50081 3.5C7.49254 3.5 7.48429 3.5 7.47604 3.5C7.46779 3.5 7.45955 3.5 7.45131 3.5C7.44307 3.5 7.43484 3.5 7.42662 3.5C7.4184 3.5 7.41019 3.5 7.40198 3.5C7.39377 3.5 7.38557 3.5 7.37737 3.5C7.36918 3.5 7.36099 3.5 7.35281 3.5C7.34463 3.5 7.33646 3.5 7.3283 3.5C7.32013 3.5 7.31197 3.5 7.30382 3.5C7.29567 3.5 7.28753 3.5 7.27939 3.5C7.27126 3.5 7.26313 3.5 7.25501 3.5C7.24688 3.5 7.23877 3.5 7.23066 3.5C7.22256 3.5 7.21446 3.5 7.20637 3.5C7.19828 3.5 7.19019 3.5 7.18211 3.5C7.17404 3.5 7.16597 3.5 7.15791 3.5C7.14985 3.5 7.14179 3.5 7.13375 3.5C7.1257 3.5 7.11766 3.5 7.10963 3.5C7.1016 3.5 7.09358 3.5 7.08557 3.5C7.07755 3.5 7.06954 3.5 7.06154 3.5C7.05354 3.5 7.04555 3.5 7.03757 3.5C7.02959 3.5 7.02161 3.5 7.01364 3.5C7.00568 3.5 6.99772 3.5 6.98977 3.5C6.98181 3.5 6.97387 3.5 6.96594 3.5C6.958 3.5 6.95007 3.5 6.94215 3.5C6.93424 3.5 6.92632 3.5 6.91842 3.5C6.91052 3.5 6.90263 3.5 6.89474 3.5C6.88685 3.5 6.87898 3.5 6.87111 3.5C6.86324 3.5 6.85538 3.5 6.84752 3.5C6.83967 3.5 6.83183 3.5 6.82399 3.5C6.81616 3.5 6.80833 3.5 6.80051 3.5C6.79269 3.5 6.78488 3.5 6.77708 3.5C6.76928 3.5 6.76148 3.5 6.7537 3.5C6.74592 3.5 6.73814 3.5 6.73037 3.5C6.72261 3.5 6.71485 3.5 6.7071 3.5C6.69935 3.5 6.69161 3.5 6.68388 3.5C6.67614 3.5 6.66842 3.5 6.66071 3.5C6.65299 3.5 6.64529 3.5 6.63759 3.5C6.6299 3.5 6.62221 3.5 6.61453 3.5C6.60685 3.5 6.59918 3.5 6.59152 3.5C6.58386 3.5 6.57621 3.5 6.56857 3.5C6.56093 3.5 6.55329 3.5 6.54567 3.5C6.53805 3.5 6.53043 3.5 6.52283 3.5C6.51522 3.5 6.50762 3.5 6.50004 3.5C6.49245 3.5 6.48487 3.5 6.47731 3.5C6.46974 3.5 6.46218 3.5 6.45463 3.5C6.44708 3.5 6.43954 3.5 6.43201 3.5C6.42448 3.5 6.41696 3.5 6.40945 3.5C6.40194 3.5 6.39443 3.5 6.38694 3.5C6.37945 3.5 6.37197 3.5 6.36449 3.5C6.35702 3.5 6.34956 3.5 6.3421 3.5C6.33465 3.5 6.32721 3.5 6.31977 3.5C6.31234 3.5 6.30491 3.5 6.2975 3.5C6.29009 3.5 6.28268 3.5 6.27529 3.5C6.26789 3.5 6.26051 3.5 6.25313 3.5C6.24576 3.5 6.23839 3.5 6.23104 3.5C6.22368 3.5 6.21634 3.5 6.209 3.5C6.20167 3.5 6.19434 3.5 6.18703 3.5C6.17972 3.5 6.17241 3.5 6.16512 3.5C6.15782 3.5 6.15054 3.5 6.14327 3.5C6.13599 3.5 6.12873 3.5 6.12148 3.5C6.11422 3.5 6.10698 3.5 6.09975 3.5C6.09251 3.5 6.08529 3.5 6.07808 3.5C6.07087 3.5 6.06367 3.5 6.05648 3.5C6.04929 3.5 6.04211 3.5 6.03494 3.5C6.02777 3.5 6.02061 3.5 6.01346 3.5C6.00631 3.5 5.99917 3.5 5.99205 3.5C5.98492 3.5 5.9778 3.5 5.9707 3.5C5.96359 3.5 5.9565 3.5 5.94941 3.5C5.94233 3.5 5.93526 3.5 5.92819 3.5C5.92113 3.5 5.91408 3.5 5.90704 3.5C5.9 3.5 5.89297 3.5 5.88595 3.5C5.87893 3.5 5.87192 3.5 5.86493 3.5C5.85793 3.5 5.85094 3.5 5.84397 3.5C5.83699 3.5 5.83003 3.5 5.82308 3.5C5.81613 3.5 5.80918 3.5 5.80225 3.5C5.79532 3.5 5.7884 3.5 5.7815 3.5C5.77459 3.5 5.76769 3.5 5.76081 3.5C5.75392 3.5 5.74705 3.5 5.74019 3.5C5.73333 3.5 5.72647 3.5 5.71964 3.5C5.7128 3.5 5.70597 3.5 5.69915 3.5C5.69234 3.5 5.68553 3.5 5.67874 3.5C5.67194 3.5 5.66516 3.5 5.65839 3.5C5.65162 3.5 5.64486 3.5 5.63812 3.5C5.63137 3.5 5.62463 3.5 5.61791 3.5C5.61119 3.5 5.60448 3.5 5.59778 3.5C5.59108 3.5 5.58439 3.5 5.57771 3.5C5.57104 3.5 5.56437 3.5 5.55772 3.5C5.55107 3.5 5.54443 3.5 5.5378 3.5C5.53117 3.5 5.52455 3.5 5.51795 3.5C5.51134 3.5 5.50475 3.5 5.49817 3.5C5.49159 3.5 5.48502 3.5 5.47847 3.5C5.47191 3.5 5.46537 3.5 5.45884 3.5C5.45231 3.5 5.44579 3.5 5.43928 3.5C5.43277 3.5 5.42628 3.5 5.41979 3.5C5.41331 3.5 5.40684 3.5 5.40038 3.5C5.39393 3.5 5.38748 3.5 5.38105 3.5C5.37462 3.5 5.3682 3.5 5.36179 3.5C5.35538 3.5 5.34899 3.5 5.3426 3.5C5.33622 3.5 5.32985 3.5 5.32349 3.5C5.31713 3.5 5.31079 3.5 5.30446 3.5C5.29813 3.5 5.29181 3.5 5.2855 3.5C5.27919 3.5 5.2729 3.5 5.26662 3.5C5.26034 3.5 5.25407 3.5 5.24781 3.5C5.24156 3.5 5.23532 3.5 5.22909 3.5C5.22286 3.5 5.21664 3.5 5.21044 3.5C5.20423 3.5 5.19804 3.5 5.19187 3.5C5.18569 3.5 5.17952 3.5 5.17337 3.5C5.16722 3.5 5.16108 3.5 5.15496 3.5C5.14883 3.5 5.14272 3.5 5.13662 3.5C5.13052 3.5 5.12444 3.5 5.11837 3.5C5.11229 3.5 5.10624 3.5 5.10019 3.5C5.09415 3.5 5.08811 3.5 5.08209 3.5C5.07608 3.5 5.07007 3.5 5.06408 3.5C5.05809 3.5 5.05211 3.5 5.04614 3.5C5.04018 3.5 5.03423 3.5 5.02829 3.5C5.02235 3.5 5.01643 3.5 5.01052 3.5C5.00461 3.5 4.99871 3.5 4.99283 3.5C4.98695 3.5 4.98108 3.5 4.97522 3.5C4.96937 3.5 4.96353 3.5 4.9577 3.5C4.95187 3.5 4.94606 3.5 4.94026 3.5C4.93446 3.5 4.92867 3.5 4.9229 3.5C4.91713 3.5 4.91137 3.5 4.90562 3.5C4.89988 3.5 4.89415 3.5 4.88843 3.5C4.88272 3.5 4.87701 3.5 4.87133 3.5C4.86564 3.5 4.85996 3.5 4.85431 3.5C4.84865 3.5 4.843 3.5 4.83737 3.5C4.83174 3.5 4.82612 3.5 4.82052 3.5C4.81492 3.5 4.80933 3.5 4.80375 3.5C4.79818 3.5 4.79262 3.5 4.78708 3.5C4.78153 3.5 4.776 3.5 4.77048 3.5C4.76497 3.5 4.75947 3.5 4.75398 3.5C4.74849 3.5 4.74302 3.5 4.73756 3.5C4.7321 3.5 4.72666 3.5 4.72123 3.5C4.7158 3.5 4.71039 3.5 4.70499 3.5C4.69959 3.5 4.69421 3.5 4.68884 3.5C4.68347 3.5 4.67811 3.5 4.67277 3.5C4.66743 3.5 4.66211 3.5 4.6568 3.5C4.65149 3.5 4.64619 3.5 4.64091 3.5C4.63563 3.5 4.63036 3.5 4.62511 3.5C4.61986 3.5 4.61463 3.5 4.60941 3.5C4.60419 3.5 4.59898 3.5 4.59379 3.5C4.5886 3.5 4.58343 3.5 4.57827 3.5C4.57311 3.5 4.56796 3.5 4.56283 3.5C4.5577 3.5 4.55259 3.5 4.54749 3.5C4.54239 3.5 4.53731 3.5 4.53224 3.5C4.52717 3.5 4.52212 3.5 4.51708 3.5C4.51205 3.5 4.50702 3.5 4.50202 3.5C4.49701 3.5 4.49202 3.5 4.48705 3.5C4.48207 3.5 4.47711 3.5 4.47217 3.5C4.46722 3.5 4.4623 3.5 4.45738 3.5C4.45247 3.5 4.44757 3.5 4.44269 3.5C4.43781 3.5 4.43295 3.5 4.4281 3.5C4.42325 3.5 4.41841 3.5 4.4136 3.5C4.40878 3.5 4.40397 3.5 4.39919 3.5C4.3944 3.5 4.38963 3.5 4.38488 3.5C4.38012 3.5 4.37539 3.5 4.37066 3.5C4.36594 3.5 4.36124 3.5 4.35654 3.5C4.35185 3.5 4.34718 3.5 4.34252 3.5C4.33787 3.5 4.33322 3.5 4.3286 3.5C4.32397 3.5 4.31936 3.5 4.31477 3.5C4.31018 3.5 4.3056 3.5 4.30104 3.5C4.29648 3.5 4.29194 3.5 4.28741 3.5C4.28288 3.5 4.27837 3.5 4.27388 3.5C4.26938 3.5 4.2649 3.5 4.26044 3.5C4.25598 3.5 4.25153 3.5 4.24711 3.5C4.24268 3.5 4.23826 3.5 4.23387 3.5C4.22947 3.5 4.2251 3.5 4.22073 3.5C4.21637 3.5 4.21203 3.5 4.2077 3.5C4.20337 3.5 4.19906 3.5 4.19476 3.5C4.19047 3.5 4.18619 3.5 4.18193 3.5V4.5Z" fill="#797979"/>
<path d="M16.4999 8.80997C16.4999 8.53383 16.276 8.30997 15.9999 8.30997C15.7237 8.30997 15.4999 8.53383 15.4999 8.80997L16.4999 8.80997ZM0.646388 12.4647C0.451126 12.6599 0.451126 12.9765 0.646388 13.1718L3.82837 16.3538C4.02363 16.549 4.34021 16.549 4.53548 16.3538C4.73074 16.1585 4.73074 15.8419 4.53548 15.6467L1.70705 12.8182L4.53548 9.98981C4.73074 9.79455 4.73074 9.47797 4.53547 9.2827C4.34021 9.08744 4.02363 9.08744 3.82837 9.2827L0.646388 12.4647ZM15.4999 8.80997C15.4999 9.73822 15.2668 10.6329 14.8167 11.2802C14.379 11.9094 13.7311 12.3182 12.8181 12.3182L12.8181 13.3182C14.0868 13.3182 15.0298 12.725 15.6376 11.8512C16.2329 10.9953 16.4999 9.88586 16.4999 8.80997L15.4999 8.80997ZM12.8181 12.3182C12.8138 12.3182 12.8095 12.3182 12.8052 12.3182C12.8009 12.3182 12.7966 12.3182 12.7923 12.3182C12.788 12.3182 12.7836 12.3182 12.7793 12.3182C12.7749 12.3182 12.7705 12.3182 12.7661 12.3182C12.7617 12.3182 12.7573 12.3182 12.7529 12.3182C12.7485 12.3182 12.744 12.3182 12.7396 12.3182C12.7351 12.3182 12.7306 12.3182 12.7261 12.3182C12.7216 12.3182 12.7171 12.3182 12.7126 12.3182C12.7081 12.3182 12.7035 12.3182 12.699 12.3182C12.6944 12.3182 12.6898 12.3182 12.6852 12.3182C12.6806 12.3182 12.676 12.3182 12.6714 12.3182C12.6668 12.3182 12.6621 12.3182 12.6575 12.3182C12.6528 12.3182 12.6481 12.3182 12.6435 12.3182C12.6388 12.3182 12.6341 12.3182 12.6293 12.3182C12.6246 12.3182 12.6199 12.3182 12.6151 12.3182C12.6104 12.3182 12.6056 12.3182 12.6008 12.3182C12.596 12.3182 12.5912 12.3182 12.5864 12.3182C12.5816 12.3182 12.5768 12.3182 12.5719 12.3182C12.5671 12.3182 12.5622 12.3182 12.5573 12.3182C12.5524 12.3182 12.5475 12.3182 12.5426 12.3182C12.5377 12.3182 12.5328 12.3182 12.5278 12.3182C12.5229 12.3182 12.5179 12.3182 12.513 12.3182C12.508 12.3182 12.503 12.3182 12.498 12.3182C12.493 12.3182 12.488 12.3182 12.4829 12.3182C12.4779 12.3182 12.4728 12.3182 12.4678 12.3182C12.4627 12.3182 12.4576 12.3182 12.4525 12.3182C12.4474 12.3182 12.4423 12.3182 12.4372 12.3182C12.432 12.3182 12.4269 12.3182 12.4217 12.3182C12.4166 12.3182 12.4114 12.3182 12.4062 12.3182C12.401 12.3182 12.3958 12.3182 12.3906 12.3182C12.3854 12.3182 12.3801 12.3182 12.3749 12.3182C12.3696 12.3182 12.3644 12.3182 12.3591 12.3182C12.3538 12.3182 12.3485 12.3182 12.3432 12.3182C12.3379 12.3182 12.3326 12.3182 12.3272 12.3182C12.3219 12.3182 12.3165 12.3182 12.3112 12.3182C12.3058 12.3182 12.3004 12.3182 12.295 12.3182C12.2896 12.3182 12.2842 12.3182 12.2788 12.3182C12.2733 12.3182 12.2679 12.3182 12.2624 12.3182C12.257 12.3182 12.2515 12.3182 12.246 12.3182C12.2405 12.3182 12.235 12.3182 12.2295 12.3182C12.224 12.3182 12.2185 12.3182 12.2129 12.3182C12.2074 12.3182 12.2018 12.3182 12.1962 12.3182C12.1907 12.3182 12.1851 12.3182 12.1795 12.3182C12.1739 12.3182 12.1683 12.3182 12.1626 12.3182C12.157 12.3182 12.1514 12.3182 12.1457 12.3182C12.14 12.3182 12.1344 12.3182 12.1287 12.3182C12.123 12.3182 12.1173 12.3182 12.1116 12.3182C12.1058 12.3182 12.1001 12.3182 12.0944 12.3182C12.0886 12.3182 12.0829 12.3182 12.0771 12.3182C12.0713 12.3182 12.0655 12.3182 12.0597 12.3182C12.0539 12.3182 12.0481 12.3182 12.0423 12.3182C12.0365 12.3182 12.0306 12.3182 12.0248 12.3182C12.0189 12.3182 12.0131 12.3182 12.0072 12.3182C12.0013 12.3182 11.9954 12.3182 11.9895 12.3182C11.9836 12.3182 11.9776 12.3182 11.9717 12.3182C11.9658 12.3182 11.9598 12.3182 11.9539 12.3182C11.9479 12.3182 11.9419 12.3182 11.9359 12.3182C11.9299 12.3182 11.9239 12.3182 11.9179 12.3182C11.9119 12.3182 11.9059 12.3182 11.8998 12.3182C11.8938 12.3182 11.8877 12.3182 11.8816 12.3182C11.8756 12.3182 11.8695 12.3182 11.8634 12.3182C11.8573 12.3182 11.8512 12.3182 11.845 12.3182C11.8389 12.3182 11.8328 12.3182 11.8266 12.3182C11.8205 12.3182 11.8143 12.3182 11.8081 12.3182C11.802 12.3182 11.7958 12.3182 11.7896 12.3182C11.7834 12.3182 11.7771 12.3182 11.7709 12.3182C11.7647 12.3182 11.7584 12.3182 11.7522 12.3182C11.7459 12.3182 11.7397 12.3182 11.7334 12.3182C11.7271 12.3182 11.7208 12.3182 11.7145 12.3182C11.7082 12.3182 11.7019 12.3182 11.6955 12.3182C11.6892 12.3182 11.6829 12.3182 11.6765 12.3182C11.6701 12.3182 11.6638 12.3182 11.6574 12.3182C11.651 12.3182 11.6446 12.3182 11.6382 12.3182C11.6318 12.3182 11.6254 12.3182 11.6189 12.3182C11.6125 12.3182 11.6061 12.3182 11.5996 12.3182C11.5932 12.3182 11.5867 12.3182 11.5802 12.3182C11.5737 12.3182 11.5672 12.3182 11.5607 12.3182C11.5542 12.3182 11.5477 12.3182 11.5412 12.3182C11.5346 12.3182 11.5281 12.3182 11.5215 12.3182C11.515 12.3182 11.5084 12.3182 11.5018 12.3182C11.4952 12.3182 11.4887 12.3182 11.482 12.3182C11.4754 12.3182 11.4688 12.3182 11.4622 12.3182C11.4556 12.3182 11.4489 12.3182 11.4423 12.3182C11.4356 12.3182 11.429 12.3182 11.4223 12.3182C11.4156 12.3182 11.4089 12.3182 11.4022 12.3182C11.3955 12.3182 11.3888 12.3182 11.3821 12.3182C11.3754 12.3182 11.3686 12.3182 11.3619 12.3182C11.3551 12.3182 11.3484 12.3182 11.3416 12.3182C11.3348 12.3182 11.3281 12.3182 11.3213 12.3182C11.3145 12.3182 11.3077 12.3182 11.3008 12.3182C11.294 12.3182 11.2872 12.3182 11.2804 12.3182C11.2735 12.3182 11.2667 12.3182 11.2598 12.3182C11.2529 12.3182 11.2461 12.3182 11.2392 12.3182C11.2323 12.3182 11.2254 12.3182 11.2185 12.3182C11.2116 12.3182 11.2047 12.3182 11.1977 12.3182C11.1908 12.3182 11.1839 12.3182 11.1769 12.3182C11.17 12.3182 11.163 12.3182 11.156 12.3182C11.1491 12.3182 11.1421 12.3182 11.1351 12.3182C11.1281 12.3182 11.1211 12.3182 11.114 12.3182C11.107 12.3182 11.1 12.3182 11.093 12.3182C11.0859 12.3182 11.0789 12.3182 11.0718 12.3182C11.0647 12.3182 11.0577 12.3182 11.0506 12.3182C11.0435 12.3182 11.0364 12.3182 11.0293 12.3182C11.0222 12.3182 11.0151 12.3182 11.008 12.3182C11.0008 12.3182 10.9937 12.3182 10.9865 12.3182C10.9794 12.3182 10.9722 12.3182 10.9651 12.3182C10.9579 12.3182 10.9507 12.3182 10.9435 12.3182C10.9363 12.3182 10.9291 12.3182 10.9219 12.3182C10.9147 12.3182 10.9075 12.3182 10.9003 12.3182C10.893 12.3182 10.8858 12.3182 10.8785 12.3182C10.8713 12.3182 10.864 12.3182 10.8567 12.3182C10.8495 12.3182 10.8422 12.3182 10.8349 12.3182C10.8276 12.3182 10.8203 12.3182 10.813 12.3182C10.8057 12.3182 10.7983 12.3182 10.791 12.3182C10.7837 12.3182 10.7763 12.3182 10.769 12.3182C10.7616 12.3182 10.7542 12.3182 10.7469 12.3182C10.7395 12.3182 10.7321 12.3182 10.7247 12.3182C10.7173 12.3182 10.7099 12.3182 10.7025 12.3182C10.6951 12.3182 10.6877 12.3182 10.6802 12.3182C10.6728 12.3182 10.6653 12.3182 10.6579 12.3182C10.6504 12.3182 10.643 12.3182 10.6355 12.3182C10.628 12.3182 10.6205 12.3182 10.6131 12.3182C10.6056 12.3182 10.5981 12.3182 10.5906 12.3182C10.583 12.3182 10.5755 12.3182 10.568 12.3182C10.5605 12.3182 10.5529 12.3182 10.5454 12.3182C10.5378 12.3182 10.5303 12.3182 10.5227 12.3182C10.5151 12.3182 10.5075 12.3182 10.5 12.3182C10.4924 12.3182 10.4848 12.3182 10.4772 12.3182C10.4696 12.3182 10.462 12.3182 10.4543 12.3182C10.4467 12.3182 10.4391 12.3182 10.4314 12.3182C10.4238 12.3182 10.4161 12.3182 10.4085 12.3182C10.4008 12.3182 10.3931 12.3182 10.3855 12.3182C10.3778 12.3182 10.3701 12.3182 10.3624 12.3182C10.3547 12.3182 10.347 12.3182 10.3393 12.3182C10.3316 12.3182 10.3239 12.3182 10.3161 12.3182C10.3084 12.3182 10.3006 12.3182 10.2929 12.3182C10.2852 12.3182 10.2774 12.3182 10.2696 12.3182C10.2619 12.3182 10.2541 12.3182 10.2463 12.3182C10.2385 12.3182 10.2307 12.3182 10.2229 12.3182C10.2151 12.3182 10.2073 12.3182 10.1995 12.3182C10.1917 12.3182 10.1838 12.3182 10.176 12.3182C10.1682 12.3182 10.1603 12.3182 10.1525 12.3182C10.1446 12.3182 10.1368 12.3182 10.1289 12.3182C10.121 12.3182 10.1131 12.3182 10.1053 12.3182C10.0974 12.3182 10.0895 12.3182 10.0816 12.3182C10.0737 12.3182 10.0658 12.3182 10.0578 12.3182C10.0499 12.3182 10.042 12.3182 10.0341 12.3182C10.0261 12.3182 10.0182 12.3182 10.0102 12.3182C10.0023 12.3182 9.99432 12.3182 9.98635 12.3182C9.97839 12.3182 9.97041 12.3182 9.96243 12.3182C9.95445 12.3182 9.94645 12.3182 9.93845 12.3182C9.93046 12.3182 9.92245 12.3182 9.91443 12.3182C9.90642 12.3182 9.8984 12.3182 9.89037 12.3182C9.88234 12.3182 9.8743 12.3182 9.86625 12.3182C9.85821 12.3182 9.85015 12.3182 9.84209 12.3182C9.83403 12.3182 9.82596 12.3182 9.81788 12.3182C9.80981 12.3182 9.80172 12.3182 9.79363 12.3182C9.78554 12.3182 9.77744 12.3182 9.76933 12.3182C9.76123 12.3182 9.75311 12.3182 9.74499 12.3182C9.73687 12.3182 9.72874 12.3182 9.72061 12.3182C9.71247 12.3182 9.70433 12.3182 9.69618 12.3182C9.68803 12.3182 9.67987 12.3182 9.6717 12.3182C9.66354 12.3182 9.65536 12.3182 9.64718 12.3182C9.639 12.3182 9.63082 12.3182 9.62262 12.3182C9.61443 12.3182 9.60623 12.3182 9.59802 12.3182C9.58981 12.3182 9.5816 12.3182 9.57338 12.3182C9.56515 12.3182 9.55692 12.3182 9.54869 12.3182C9.54045 12.3182 9.53221 12.3182 9.52396 12.3182C9.51571 12.3182 9.50745 12.3182 9.49919 12.3182C9.49093 12.3182 9.48266 12.3182 9.47438 12.3182C9.4661 12.3182 9.45782 12.3182 9.44953 12.3182C9.44124 12.3182 9.43294 12.3182 9.42464 12.3182C9.41633 12.3182 9.40802 12.3182 9.39971 12.3182C9.39139 12.3182 9.38307 12.3182 9.37474 12.3182C9.36641 12.3182 9.35807 12.3182 9.34973 12.3182C9.34138 12.3182 9.33303 12.3182 9.32468 12.3182C9.31632 12.3182 9.30796 12.3182 9.29959 12.3182C9.29122 12.3182 9.28285 12.3182 9.27447 12.3182C9.26609 12.3182 9.2577 12.3182 9.24931 12.3182C9.24091 12.3182 9.23251 12.3182 9.22411 12.3182C9.2157 12.3182 9.20729 12.3182 9.19887 12.3182C9.19045 12.3182 9.18203 12.3182 9.1736 12.3182C9.16517 12.3182 9.15673 12.3182 9.14829 12.3182C9.13985 12.3182 9.1314 12.3182 9.12294 12.3182C9.11449 12.3182 9.10603 12.3182 9.09756 12.3182C9.0891 12.3182 9.08063 12.3182 9.07215 12.3182C9.06367 12.3182 9.05519 12.3182 9.0467 12.3182C9.03821 12.3182 9.02972 12.3182 9.02121 12.3182C9.01271 12.3182 9.00421 12.3182 8.9957 12.3182C8.98718 12.3182 8.97867 12.3182 8.97014 12.3182C8.96162 12.3182 8.95309 12.3182 8.94456 12.3182C8.93603 12.3182 8.92749 12.3182 8.91894 12.3182C8.9104 12.3182 8.90185 12.3182 8.89329 12.3182C8.88473 12.3182 8.87617 12.3182 8.86761 12.3182C8.85904 12.3182 8.85047 12.3182 8.84189 12.3182C8.83331 12.3182 8.82473 12.3182 8.81615 12.3182C8.80756 12.3182 8.79897 12.3182 8.79037 12.3182C8.78177 12.3182 8.77317 12.3182 8.76456 12.3182C8.75595 12.3182 8.74734 12.3182 8.73872 12.3182C8.7301 12.3182 8.72148 12.3182 8.71285 12.3182C8.70422 12.3182 8.69559 12.3182 8.68695 12.3182C8.67831 12.3182 8.66967 12.3182 8.66102 12.3182C8.65238 12.3182 8.64372 12.3182 8.63507 12.3182C8.62641 12.3182 8.61775 12.3182 8.60908 12.3182C8.60041 12.3182 8.59174 12.3182 8.58307 12.3182C8.57439 12.3182 8.56571 12.3182 8.55702 12.3182C8.54834 12.3182 8.53965 12.3182 8.53095 12.3182C8.52226 12.3182 8.51356 12.3182 8.50486 12.3182C8.49615 12.3182 8.48745 12.3182 8.47873 12.3182C8.47002 12.3182 8.4613 12.3182 8.45258 12.3182C8.44386 12.3182 8.43514 12.3182 8.42641 12.3182C8.41768 12.3182 8.40894 12.3182 8.4002 12.3182C8.39147 12.3182 8.38272 12.3182 8.37398 12.3182C8.36523 12.3182 8.35648 12.3182 8.34772 12.3182C8.33897 12.3182 8.33021 12.3182 8.32145 12.3182C8.31268 12.3182 8.30392 12.3182 8.29514 12.3182C8.28637 12.3182 8.2776 12.3182 8.26882 12.3182C8.26004 12.3182 8.25126 12.3182 8.24247 12.3182C8.23368 12.3182 8.22489 12.3182 8.2161 12.3182C8.2073 12.3182 8.1985 12.3182 8.1897 12.3182C8.1809 12.3182 8.17209 12.3182 8.16328 12.3182C8.15447 12.3182 8.14566 12.3182 8.13684 12.3182C8.12802 12.3182 8.1192 12.3182 8.11038 12.3182C8.10155 12.3182 8.09273 12.3182 8.08389 12.3182C8.07506 12.3182 8.06623 12.3182 8.05739 12.3182C8.04855 12.3182 8.03971 12.3182 8.03086 12.3182C8.02202 12.3182 8.01317 12.3182 8.00432 12.3182C7.99546 12.3182 7.98661 12.3182 7.97775 12.3182C7.96889 12.3182 7.96003 12.3182 7.95116 12.3182C7.9423 12.3182 7.93343 12.3182 7.92456 12.3182C7.91569 12.3182 7.90681 12.3182 7.89793 12.3182C7.88906 12.3182 7.88018 12.3182 7.87129 12.3182C7.86241 12.3182 7.85352 12.3182 7.84463 12.3182C7.83574 12.3182 7.82685 12.3182 7.81795 12.3182C7.80905 12.3182 7.80015 12.3182 7.79125 12.3182C7.78235 12.3182 7.77345 12.3182 7.76454 12.3182C7.75563 12.3182 7.74672 12.3182 7.73781 12.3182C7.72889 12.3182 7.71998 12.3182 7.71106 12.3182C7.70214 12.3182 7.69322 12.3182 7.6843 12.3182C7.67537 12.3182 7.66645 12.3182 7.65752 12.3182C7.64859 12.3182 7.63966 12.3182 7.63072 12.3182C7.62179 12.3182 7.61285 12.3182 7.60391 12.3182C7.59497 12.3182 7.58603 12.3182 7.57709 12.3182C7.56814 12.3182 7.5592 12.3182 7.55025 12.3182C7.5413 12.3182 7.53235 12.3182 7.52339 12.3182C7.51444 12.3182 7.50548 12.3182 7.49653 12.3182C7.48757 12.3182 7.47861 12.3182 7.46965 12.3182C7.46068 12.3182 7.45172 12.3182 7.44275 12.3182C7.43379 12.3182 7.42482 12.3182 7.41585 12.3182C7.40688 12.3182 7.3979 12.3182 7.38893 12.3182C7.37996 12.3182 7.37098 12.3182 7.362 12.3182C7.35302 12.3182 7.34404 12.3182 7.33506 12.3182C7.32608 12.3182 7.31709 12.3182 7.30811 12.3182C7.29912 12.3182 7.29013 12.3182 7.28114 12.3182C7.27215 12.3182 7.26316 12.3182 7.25417 12.3182C7.24518 12.3182 7.23618 12.3182 7.22719 12.3182C7.21819 12.3182 7.20919 12.3182 7.20019 12.3182C7.19119 12.3182 7.18219 12.3182 7.17319 12.3182C7.16419 12.3182 7.15518 12.3182 7.14618 12.3182C7.13717 12.3182 7.12817 12.3182 7.11916 12.3182C7.11015 12.3182 7.10114 12.3182 7.09213 12.3182C7.08312 12.3182 7.07411 12.3182 7.06509 12.3182C7.05608 12.3182 7.04707 12.3182 7.03805 12.3182C7.02903 12.3182 7.02002 12.3182 7.011 12.3182C7.00198 12.3182 6.99296 12.3182 6.98394 12.3182C6.97492 12.3182 6.9659 12.3182 6.95688 12.3182C6.94785 12.3182 6.93883 12.3182 6.92981 12.3182C6.92078 12.3182 6.91176 12.3182 6.90273 12.3182C6.8937 12.3182 6.88467 12.3182 6.87565 12.3182C6.86662 12.3182 6.85759 12.3182 6.84856 12.3182C6.83953 12.3182 6.8305 12.3182 6.82147 12.3182C6.81244 12.3182 6.8034 12.3182 6.79437 12.3182C6.78534 12.3182 6.77631 12.3182 6.76727 12.3182C6.75824 12.3182 6.7492 12.3182 6.74017 12.3182C6.73113 12.3182 6.7221 12.3182 6.71306 12.3182C6.70403 12.3182 6.69499 12.3182 6.68595 12.3182C6.67691 12.3182 6.66788 12.3182 6.65884 12.3182C6.6498 12.3182 6.64076 12.3182 6.63172 12.3182C6.62269 12.3182 6.61365 12.3182 6.60461 12.3182C6.59557 12.3182 6.58653 12.3182 6.57749 12.3182C6.56845 12.3182 6.55941 12.3182 6.55037 12.3182C6.54133 12.3182 6.53229 12.3182 6.52325 12.3182C6.51421 12.3182 6.50517 12.3182 6.49613 12.3182C6.48709 12.3182 6.47805 12.3182 6.46901 12.3182C6.45997 12.3182 6.45093 12.3182 6.44189 12.3182C6.43285 12.3182 6.42381 12.3182 6.41477 12.3182C6.40573 12.3182 6.39669 12.3182 6.38765 12.3182C6.37861 12.3182 6.36957 12.3182 6.36054 12.3182C6.3515 12.3182 6.34246 12.3182 6.33342 12.3182C6.32438 12.3182 6.31534 12.3182 6.30631 12.3182C6.29727 12.3182 6.28823 12.3182 6.2792 12.3182C6.27016 12.3182 6.26112 12.3182 6.25209 12.3182C6.24305 12.3182 6.23402 12.3182 6.22498 12.3182C6.21595 12.3182 6.20692 12.3182 6.19788 12.3182C6.18885 12.3182 6.17982 12.3182 6.17079 12.3182C6.16175 12.3182 6.15272 12.3182 6.14369 12.3182C6.13466 12.3182 6.12563 12.3182 6.1166 12.3182C6.10758 12.3182 6.09855 12.3182 6.08952 12.3182C6.08049 12.3182 6.07147 12.3182 6.06244 12.3182C6.05342 12.3182 6.04439 12.3182 6.03537 12.3182C6.02635 12.3182 6.01732 12.3182 6.0083 12.3182C5.99928 12.3182 5.99026 12.3182 5.98124 12.3182C5.97222 12.3182 5.96321 12.3182 5.95419 12.3182C5.94517 12.3182 5.93616 12.3182 5.92714 12.3182C5.91813 12.3182 5.90912 12.3182 5.9001 12.3182C5.89109 12.3182 5.88208 12.3182 5.87307 12.3182C5.86406 12.3182 5.85506 12.3182 5.84605 12.3182C5.83704 12.3182 5.82804 12.3182 5.81904 12.3182C5.81003 12.3182 5.80103 12.3182 5.79203 12.3182C5.78303 12.3182 5.77403 12.3182 5.76504 12.3182C5.75604 12.3182 5.74704 12.3182 5.73805 12.3182C5.72905 12.3182 5.72006 12.3182 5.71107 12.3182C5.70208 12.3182 5.69309 12.3182 5.68411 12.3182C5.67512 12.3182 5.66613 12.3182 5.65715 12.3182C5.64817 12.3182 5.63919 12.3182 5.63021 12.3182C5.62123 12.3182 5.61225 12.3182 5.60327 12.3182C5.5943 12.3182 5.58532 12.3182 5.57635 12.3182C5.56738 12.3182 5.55841 12.3182 5.54944 12.3182C5.54047 12.3182 5.53151 12.3182 5.52254 12.3182C5.51358 12.3182 5.50462 12.3182 5.49566 12.3182C5.4867 12.3182 5.47774 12.3182 5.46879 12.3182C5.45983 12.3182 5.45088 12.3182 5.44193 12.3182C5.43298 12.3182 5.42403 12.3182 5.41509 12.3182C5.40614 12.3182 5.3972 12.3182 5.38826 12.3182C5.37932 12.3182 5.37038 12.3182 5.36144 12.3182C5.35251 12.3182 5.34358 12.3182 5.33465 12.3182C5.32571 12.3182 5.31679 12.3182 5.30786 12.3182C5.29894 12.3182 5.29001 12.3182 5.28109 12.3182C5.27217 12.3182 5.26325 12.3182 5.25434 12.3182C5.24542 12.3182 5.23651 12.3182 5.2276 12.3182C5.21869 12.3182 5.20979 12.3182 5.20088 12.3182C5.19198 12.3182 5.18308 12.3182 5.17418 12.3182C5.16528 12.3182 5.15639 12.3182 5.1475 12.3182C5.1386 12.3182 5.12972 12.3182 5.12083 12.3182C5.11194 12.3182 5.10306 12.3182 5.09418 12.3182C5.0853 12.3182 5.07642 12.3182 5.06755 12.3182C5.05868 12.3182 5.04981 12.3182 5.04094 12.3182C5.03207 12.3182 5.02321 12.3182 5.01435 12.3182C5.00549 12.3182 4.99663 12.3182 4.98777 12.3182C4.97892 12.3182 4.97007 12.3182 4.96122 12.3182C4.95237 12.3182 4.94353 12.3182 4.93469 12.3182C4.92585 12.3182 4.91701 12.3182 4.90818 12.3182C4.89934 12.3182 4.89051 12.3182 4.88169 12.3182C4.87286 12.3182 4.86404 12.3182 4.85522 12.3182C4.8464 12.3182 4.83758 12.3182 4.82877 12.3182C4.81996 12.3182 4.81115 12.3182 4.80235 12.3182C4.79354 12.3182 4.78474 12.3182 4.77594 12.3182C4.76715 12.3182 4.75835 12.3182 4.74956 12.3182C4.74077 12.3182 4.73199 12.3182 4.72321 12.3182C4.71442 12.3182 4.70565 12.3182 4.69687 12.3182C4.6881 12.3182 4.67933 12.3182 4.67056 12.3182C4.6618 12.3182 4.65304 12.3182 4.64428 12.3182C4.63552 12.3182 4.62677 12.3182 4.61802 12.3182C4.60927 12.3182 4.60052 12.3182 4.59178 12.3182C4.58304 12.3182 4.57431 12.3182 4.56557 12.3182C4.55684 12.3182 4.54811 12.3182 4.53939 12.3182C4.53067 12.3182 4.52195 12.3182 4.51323 12.3182C4.50452 12.3182 4.49581 12.3182 4.4871 12.3182C4.47839 12.3182 4.46969 12.3182 4.46099 12.3182C4.4523 12.3182 4.4436 12.3182 4.43492 12.3182C4.42623 12.3182 4.41754 12.3182 4.40887 12.3182C4.40019 12.3182 4.39151 12.3182 4.38284 12.3182C4.37417 12.3182 4.36551 12.3182 4.35685 12.3182C4.34819 12.3182 4.33953 12.3182 4.33088 12.3182C4.32223 12.3182 4.31359 12.3182 4.30495 12.3182C4.2963 12.3182 4.28767 12.3182 4.27904 12.3182C4.27041 12.3182 4.26178 12.3182 4.25316 12.3182C4.24454 12.3182 4.23592 12.3182 4.22731 12.3182C4.2187 12.3182 4.21009 12.3182 4.20149 12.3182C4.19289 12.3182 4.1843 12.3182 4.17571 12.3182C4.16712 12.3182 4.15853 12.3182 4.14995 12.3182C4.14137 12.3182 4.1328 12.3182 4.12423 12.3182C4.11566 12.3182 4.10709 12.3182 4.09853 12.3182C4.08997 12.3182 4.08142 12.3182 4.07287 12.3182C4.06432 12.3182 4.05578 12.3182 4.04724 12.3182C4.03871 12.3182 4.03017 12.3182 4.02165 12.3182C4.01312 12.3182 4.0046 12.3182 3.99609 12.3182C3.98757 12.3182 3.97906 12.3182 3.97056 12.3182C3.96205 12.3182 3.95356 12.3182 3.94506 12.3182C3.93657 12.3182 3.92808 12.3182 3.9196 12.3182C3.91112 12.3182 3.90265 12.3182 3.89418 12.3182C3.88571 12.3182 3.87724 12.3182 3.86879 12.3182C3.86033 12.3182 3.85188 12.3182 3.84343 12.3182C3.83498 12.3182 3.82654 12.3182 3.81811 12.3182C3.80968 12.3182 3.80125 12.3182 3.79283 12.3182C3.78441 12.3182 3.77599 12.3182 3.76758 12.3182C3.75917 12.3182 3.75077 12.3182 3.74237 12.3182C3.73397 12.3182 3.72558 12.3182 3.7172 12.3182C3.70881 12.3182 3.70043 12.3182 3.69206 12.3182C3.68369 12.3182 3.67532 12.3182 3.66696 12.3182C3.6586 12.3182 3.65025 12.3182 3.6419 12.3182C3.63356 12.3182 3.62522 12.3182 3.61688 12.3182C3.60855 12.3182 3.60022 12.3182 3.5919 12.3182C3.58358 12.3182 3.57526 12.3182 3.56696 12.3182C3.55865 12.3182 3.55035 12.3182 3.54205 12.3182C3.53376 12.3182 3.52547 12.3182 3.51719 12.3182C3.50891 12.3182 3.50063 12.3182 3.49237 12.3182C3.4841 12.3182 3.47584 12.3182 3.46758 12.3182C3.45933 12.3182 3.45108 12.3182 3.44284 12.3182C3.4346 12.3182 3.42637 12.3182 3.41814 12.3182C3.40992 12.3182 3.4017 12.3182 3.39349 12.3182C3.38527 12.3182 3.37707 12.3182 3.36887 12.3182C3.36067 12.3182 3.35248 12.3182 3.3443 12.3182C3.33611 12.3182 3.32794 12.3182 3.31977 12.3182C3.3116 12.3182 3.30343 12.3182 3.29528 12.3182C3.28712 12.3182 3.27898 12.3182 3.27084 12.3182C3.26269 12.3182 3.25456 12.3182 3.24644 12.3182C3.23831 12.3182 3.23019 12.3182 3.22208 12.3182C3.21397 12.3182 3.20587 12.3182 3.19777 12.3182C3.18967 12.3182 3.18158 12.3182 3.1735 12.3182C3.16542 12.3182 3.15735 12.3182 3.14928 12.3182C3.14122 12.3182 3.13316 12.3182 3.12511 12.3182C3.11706 12.3182 3.10902 12.3182 3.10098 12.3182C3.09294 12.3182 3.08492 12.3182 3.0769 12.3182C3.06888 12.3182 3.06087 12.3182 3.05286 12.3182C3.04486 12.3182 3.03686 12.3182 3.02887 12.3182C3.02089 12.3182 3.01291 12.3182 3.00493 12.3182C2.99696 12.3182 2.989 12.3182 2.98104 12.3182C2.97308 12.3182 2.96514 12.3182 2.9572 12.3182C2.94926 12.3182 2.94132 12.3182 2.9334 12.3182C2.92548 12.3182 2.91756 12.3182 2.90965 12.3182C2.90175 12.3182 2.89385 12.3182 2.88596 12.3182C2.87806 12.3182 2.87018 12.3182 2.86231 12.3182C2.85443 12.3182 2.84657 12.3182 2.83871 12.3182C2.83085 12.3182 2.823 12.3182 2.81516 12.3182C2.80732 12.3182 2.79949 12.3182 2.79166 12.3182C2.78384 12.3182 2.77603 12.3182 2.76822 12.3182C2.76041 12.3182 2.75261 12.3182 2.74482 12.3182C2.73703 12.3182 2.72925 12.3182 2.72148 12.3182C2.71371 12.3182 2.70595 12.3182 2.69819 12.3182C2.69044 12.3182 2.68269 12.3182 2.67495 12.3182C2.66722 12.3182 2.65949 12.3182 2.65177 12.3182C2.64405 12.3182 2.63634 12.3182 2.62864 12.3182C2.62093 12.3182 2.61324 12.3182 2.60556 12.3182C2.59787 12.3182 2.5902 12.3182 2.58253 12.3182C2.57487 12.3182 2.56721 12.3182 2.55956 12.3182C2.55192 12.3182 2.54428 12.3182 2.53665 12.3182C2.52902 12.3182 2.5214 12.3182 2.51379 12.3182C2.50618 12.3182 2.49857 12.3182 2.49098 12.3182C2.48339 12.3182 2.47581 12.3182 2.46823 12.3182C2.46066 12.3182 2.45309 12.3182 2.44554 12.3182C2.43798 12.3182 2.43044 12.3182 2.4229 12.3182C2.41537 12.3182 2.40784 12.3182 2.40032 12.3182C2.39281 12.3182 2.3853 12.3182 2.3778 12.3182C2.3703 12.3182 2.36281 12.3182 2.35534 12.3182C2.34786 12.3182 2.34039 12.3182 2.33293 12.3182C2.32547 12.3182 2.31802 12.3182 2.31058 12.3182C2.30314 12.3182 2.29571 12.3182 2.28829 12.3182C2.28087 12.3182 2.27346 12.3182 2.26606 12.3182C2.25866 12.3182 2.25127 12.3182 2.24388 12.3182C2.2365 12.3182 2.22913 12.3182 2.22177 12.3182C2.21441 12.3182 2.20706 12.3182 2.19972 12.3182C2.19238 12.3182 2.18505 12.3182 2.17773 12.3182C2.17041 12.3182 2.1631 12.3182 2.1558 12.3182C2.1485 12.3182 2.14121 12.3182 2.13393 12.3182C2.12665 12.3182 2.11938 12.3182 2.11212 12.3182C2.10486 12.3182 2.09761 12.3182 2.09037 12.3182C2.08313 12.3182 2.0759 12.3182 2.06868 12.3182C2.06147 12.3182 2.05426 12.3182 2.04706 12.3182C2.03987 12.3182 2.03268 12.3182 2.0255 12.3182C2.01833 12.3182 2.01116 12.3182 2.00401 12.3182C1.99685 12.3182 1.98971 12.3182 1.98257 12.3182C1.97544 12.3182 1.96832 12.3182 1.96121 12.3182C1.95409 12.3182 1.94699 12.3182 1.9399 12.3182C1.93281 12.3182 1.92573 12.3182 1.91866 12.3182C1.91159 12.3182 1.90453 12.3182 1.89749 12.3182C1.89044 12.3182 1.8834 12.3182 1.87638 12.3182C1.86935 12.3182 1.86234 12.3182 1.85533 12.3182C1.84833 12.3182 1.84134 12.3182 1.83436 12.3182C1.82738 12.3182 1.8204 12.3182 1.81345 12.3182C1.80649 12.3182 1.79954 12.3182 1.7926 12.3182C1.78566 12.3182 1.77874 12.3182 1.77182 12.3182C1.76491 12.3182 1.75801 12.3182 1.75112 12.3182C1.74422 12.3182 1.73734 12.3182 1.73047 12.3182C1.7236 12.3182 1.71675 12.3182 1.7099 12.3182C1.70305 12.3182 1.69622 12.3182 1.6894 12.3182C1.68257 12.3182 1.67576 12.3182 1.66896 12.3182C1.66216 12.3182 1.65537 12.3182 1.64859 12.3182C1.64182 12.3182 1.63505 12.3182 1.6283 12.3182C1.62154 12.3182 1.6148 12.3182 1.60807 12.3182C1.60134 12.3182 1.59462 12.3182 1.58791 12.3182C1.58121 12.3182 1.57451 12.3182 1.56783 12.3182C1.56115 12.3182 1.55447 12.3182 1.54781 12.3182C1.54116 12.3182 1.53451 12.3182 1.52787 12.3182C1.52124 12.3182 1.51461 12.3182 1.508 12.3182C1.50139 12.3182 1.49479 12.3182 1.4882 12.3182C1.48161 12.3182 1.47504 12.3182 1.46848 12.3182C1.46191 12.3182 1.45536 12.3182 1.44882 12.3182C1.44228 12.3182 1.43576 12.3182 1.42924 12.3182C1.42273 12.3182 1.41623 12.3182 1.40974 12.3182C1.40325 12.3182 1.39677 12.3182 1.3903 12.3182C1.38384 12.3182 1.37739 12.3182 1.37095 12.3182C1.3645 12.3182 1.35808 12.3182 1.35166 12.3182C1.34525 12.3182 1.33884 12.3182 1.33245 12.3182C1.32606 12.3182 1.31969 12.3182 1.31332 12.3182C1.30695 12.3182 1.3006 12.3182 1.29426 12.3182C1.28792 12.3182 1.2816 12.3182 1.27528 12.3182C1.26897 12.3182 1.26267 12.3182 1.25638 12.3182C1.25009 12.3182 1.24381 12.3182 1.23755 12.3182C1.23129 12.3182 1.22504 12.3182 1.2188 12.3182C1.21256 12.3182 1.20634 12.3182 1.20013 12.3182C1.19391 12.3182 1.18772 12.3182 1.18153 12.3182C1.17534 12.3182 1.16917 12.3182 1.16301 12.3182C1.15685 12.3182 1.15071 12.3182 1.14457 12.3182C1.13844 12.3182 1.13232 12.3182 1.12622 12.3182C1.12011 12.3182 1.11402 12.3182 1.10794 12.3182C1.10186 12.3182 1.09579 12.3182 1.08973 12.3182C1.08368 12.3182 1.07764 12.3182 1.07161 12.3182C1.06559 12.3182 1.05957 12.3182 1.05357 12.3182C1.04758 12.3182 1.04159 12.3182 1.03562 12.3182C1.02964 12.3182 1.02368 12.3182 1.01774 12.3182C1.01179 12.3182 1.00586 12.3182 0.999941 12.3182L0.999941 13.3182C1.00586 13.3182 1.01179 13.3182 1.01774 13.3182C1.02368 13.3182 1.02964 13.3182 1.03562 13.3182C1.04159 13.3182 1.04758 13.3182 1.05357 13.3182C1.05957 13.3182 1.06559 13.3182 1.07161 13.3182C1.07764 13.3182 1.08368 13.3182 1.08974 13.3182C1.09579 13.3182 1.10186 13.3182 1.10794 13.3182C1.11402 13.3182 1.12011 13.3182 1.12622 13.3182C1.13232 13.3182 1.13844 13.3182 1.14457 13.3182C1.15071 13.3182 1.15685 13.3182 1.16301 13.3182C1.16917 13.3182 1.17534 13.3182 1.18153 13.3182C1.18772 13.3182 1.19391 13.3182 1.20013 13.3182C1.20634 13.3182 1.21256 13.3182 1.2188 13.3182C1.22504 13.3182 1.23129 13.3182 1.23755 13.3182C1.24381 13.3182 1.25009 13.3182 1.25638 13.3182C1.26267 13.3182 1.26897 13.3182 1.27528 13.3182C1.2816 13.3182 1.28792 13.3182 1.29426 13.3182C1.3006 13.3182 1.30696 13.3182 1.31332 13.3182C1.31969 13.3182 1.32606 13.3182 1.33245 13.3182C1.33884 13.3182 1.34525 13.3182 1.35166 13.3182C1.35808 13.3182 1.3645 13.3182 1.37095 13.3182C1.37739 13.3182 1.38384 13.3182 1.3903 13.3182C1.39677 13.3182 1.40325 13.3182 1.40974 13.3182C1.41623 13.3182 1.42273 13.3182 1.42924 13.3182C1.43576 13.3182 1.44228 13.3182 1.44882 13.3182C1.45536 13.3182 1.46191 13.3182 1.46848 13.3182C1.47504 13.3182 1.48161 13.3182 1.4882 13.3182C1.49479 13.3182 1.50139 13.3182 1.508 13.3182C1.51461 13.3182 1.52124 13.3182 1.52787 13.3182C1.53451 13.3182 1.54116 13.3182 1.54782 13.3182C1.55447 13.3182 1.56115 13.3182 1.56783 13.3182C1.57451 13.3182 1.58121 13.3182 1.58791 13.3182C1.59462 13.3182 1.60134 13.3182 1.60807 13.3182C1.6148 13.3182 1.62154 13.3182 1.6283 13.3182C1.63505 13.3182 1.64182 13.3182 1.64859 13.3182C1.65537 13.3182 1.66216 13.3182 1.66896 13.3182C1.67576 13.3182 1.68257 13.3182 1.6894 13.3182C1.69622 13.3182 1.70305 13.3182 1.7099 13.3182C1.71675 13.3182 1.7236 13.3182 1.73047 13.3182C1.73734 13.3182 1.74422 13.3182 1.75112 13.3182C1.75801 13.3182 1.76491 13.3182 1.77182 13.3182C1.77874 13.3182 1.78566 13.3182 1.7926 13.3182C1.79954 13.3182 1.80649 13.3182 1.81345 13.3182C1.8204 13.3182 1.82738 13.3182 1.83436 13.3182C1.84134 13.3182 1.84833 13.3182 1.85533 13.3182C1.86234 13.3182 1.86935 13.3182 1.87638 13.3182C1.8834 13.3182 1.89044 13.3182 1.89749 13.3182C1.90453 13.3182 1.91159 13.3182 1.91866 13.3182C1.92573 13.3182 1.93281 13.3182 1.9399 13.3182C1.94699 13.3182 1.95409 13.3182 1.96121 13.3182C1.96832 13.3182 1.97544 13.3182 1.98257 13.3182C1.98971 13.3182 1.99685 13.3182 2.00401 13.3182C2.01116 13.3182 2.01833 13.3182 2.0255 13.3182C2.03268 13.3182 2.03987 13.3182 2.04706 13.3182C2.05426 13.3182 2.06147 13.3182 2.06868 13.3182C2.0759 13.3182 2.08313 13.3182 2.09037 13.3182C2.09761 13.3182 2.10486 13.3182 2.11212 13.3182C2.11938 13.3182 2.12665 13.3182 2.13393 13.3182C2.14121 13.3182 2.1485 13.3182 2.1558 13.3182C2.1631 13.3182 2.17041 13.3182 2.17773 13.3182C2.18505 13.3182 2.19238 13.3182 2.19972 13.3182C2.20706 13.3182 2.21441 13.3182 2.22177 13.3182C2.22913 13.3182 2.2365 13.3182 2.24388 13.3182C2.25127 13.3182 2.25866 13.3182 2.26606 13.3182C2.27346 13.3182 2.28087 13.3182 2.28829 13.3182C2.29571 13.3182 2.30314 13.3182 2.31058 13.3182C2.31802 13.3182 2.32547 13.3182 2.33293 13.3182C2.34039 13.3182 2.34786 13.3182 2.35534 13.3182C2.36281 13.3182 2.3703 13.3182 2.3778 13.3182C2.3853 13.3182 2.39281 13.3182 2.40032 13.3182C2.40784 13.3182 2.41537 13.3182 2.4229 13.3182C2.43044 13.3182 2.43798 13.3182 2.44554 13.3182C2.45309 13.3182 2.46066 13.3182 2.46823 13.3182C2.47581 13.3182 2.48339 13.3182 2.49098 13.3182C2.49857 13.3182 2.50618 13.3182 2.51379 13.3182C2.5214 13.3182 2.52902 13.3182 2.53665 13.3182C2.54428 13.3182 2.55192 13.3182 2.55956 13.3182C2.56721 13.3182 2.57487 13.3182 2.58253 13.3182C2.5902 13.3182 2.59787 13.3182 2.60556 13.3182C2.61324 13.3182 2.62093 13.3182 2.62864 13.3182C2.63634 13.3182 2.64405 13.3182 2.65177 13.3182C2.65949 13.3182 2.66722 13.3182 2.67495 13.3182C2.68269 13.3182 2.69044 13.3182 2.69819 13.3182C2.70595 13.3182 2.71371 13.3182 2.72148 13.3182C2.72925 13.3182 2.73703 13.3182 2.74482 13.3182C2.75261 13.3182 2.76041 13.3182 2.76822 13.3182C2.77603 13.3182 2.78384 13.3182 2.79166 13.3182C2.79949 13.3182 2.80732 13.3182 2.81516 13.3182C2.823 13.3182 2.83085 13.3182 2.83871 13.3182C2.84657 13.3182 2.85443 13.3182 2.86231 13.3182C2.87018 13.3182 2.87806 13.3182 2.88596 13.3182C2.89385 13.3182 2.90175 13.3182 2.90965 13.3182C2.91756 13.3182 2.92548 13.3182 2.9334 13.3182C2.94132 13.3182 2.94926 13.3182 2.9572 13.3182C2.96514 13.3182 2.97308 13.3182 2.98104 13.3182C2.989 13.3182 2.99696 13.3182 3.00493 13.3182C3.01291 13.3182 3.02089 13.3182 3.02887 13.3182C3.03686 13.3182 3.04486 13.3182 3.05286 13.3182C3.06087 13.3182 3.06888 13.3182 3.0769 13.3182C3.08492 13.3182 3.09295 13.3182 3.10098 13.3182C3.10902 13.3182 3.11706 13.3182 3.12511 13.3182C3.13316 13.3182 3.14122 13.3182 3.14928 13.3182C3.15735 13.3182 3.16542 13.3182 3.1735 13.3182C3.18158 13.3182 3.18967 13.3182 3.19777 13.3182C3.20587 13.3182 3.21397 13.3182 3.22208 13.3182C3.23019 13.3182 3.23831 13.3182 3.24644 13.3182C3.25456 13.3182 3.26269 13.3182 3.27084 13.3182C3.27898 13.3182 3.28712 13.3182 3.29528 13.3182C3.30343 13.3182 3.3116 13.3182 3.31977 13.3182C3.32794 13.3182 3.33611 13.3182 3.3443 13.3182C3.35248 13.3182 3.36067 13.3182 3.36887 13.3182C3.37707 13.3182 3.38527 13.3182 3.39349 13.3182C3.4017 13.3182 3.40992 13.3182 3.41814 13.3182C3.42637 13.3182 3.4346 13.3182 3.44284 13.3182C3.45108 13.3182 3.45933 13.3182 3.46758 13.3182C3.47584 13.3182 3.4841 13.3182 3.49237 13.3182C3.50063 13.3182 3.50891 13.3182 3.51719 13.3182C3.52547 13.3182 3.53376 13.3182 3.54205 13.3182C3.55035 13.3182 3.55865 13.3182 3.56696 13.3182C3.57526 13.3182 3.58358 13.3182 3.5919 13.3182C3.60022 13.3182 3.60855 13.3182 3.61688 13.3182C3.62522 13.3182 3.63356 13.3182 3.6419 13.3182C3.65025 13.3182 3.6586 13.3182 3.66696 13.3182C3.67532 13.3182 3.68369 13.3182 3.69206 13.3182C3.70043 13.3182 3.70881 13.3182 3.7172 13.3182C3.72558 13.3182 3.73397 13.3182 3.74237 13.3182C3.75077 13.3182 3.75917 13.3182 3.76758 13.3182C3.77599 13.3182 3.78441 13.3182 3.79283 13.3182C3.80125 13.3182 3.80968 13.3182 3.81811 13.3182C3.82654 13.3182 3.83498 13.3182 3.84343 13.3182C3.85188 13.3182 3.86033 13.3182 3.86879 13.3182C3.87724 13.3182 3.88571 13.3182 3.89418 13.3182C3.90265 13.3182 3.91112 13.3182 3.9196 13.3182C3.92808 13.3182 3.93657 13.3182 3.94506 13.3182C3.95356 13.3182 3.96205 13.3182 3.97056 13.3182C3.97906 13.3182 3.98757 13.3182 3.99609 13.3182C4.0046 13.3182 4.01312 13.3182 4.02165 13.3182C4.03017 13.3182 4.03871 13.3182 4.04724 13.3182C4.05578 13.3182 4.06432 13.3182 4.07287 13.3182C4.08142 13.3182 4.08997 13.3182 4.09853 13.3182C4.10709 13.3182 4.11566 13.3182 4.12423 13.3182C4.1328 13.3182 4.14137 13.3182 4.14995 13.3182C4.15853 13.3182 4.16712 13.3182 4.17571 13.3182C4.1843 13.3182 4.19289 13.3182 4.20149 13.3182C4.21009 13.3182 4.2187 13.3182 4.22731 13.3182C4.23592 13.3182 4.24454 13.3182 4.25316 13.3182C4.26178 13.3182 4.27041 13.3182 4.27904 13.3182C4.28767 13.3182 4.2963 13.3182 4.30495 13.3182C4.31359 13.3182 4.32223 13.3182 4.33088 13.3182C4.33953 13.3182 4.34819 13.3182 4.35685 13.3182C4.36551 13.3182 4.37417 13.3182 4.38284 13.3182C4.39151 13.3182 4.40019 13.3182 4.40887 13.3182C4.41754 13.3182 4.42623 13.3182 4.43492 13.3182C4.4436 13.3182 4.4523 13.3182 4.46099 13.3182C4.46969 13.3182 4.47839 13.3182 4.4871 13.3182C4.49581 13.3182 4.50452 13.3182 4.51323 13.3182C4.52195 13.3182 4.53067 13.3182 4.53939 13.3182C4.54811 13.3182 4.55684 13.3182 4.56557 13.3182C4.57431 13.3182 4.58304 13.3182 4.59178 13.3182C4.60052 13.3182 4.60927 13.3182 4.61802 13.3182C4.62677 13.3182 4.63552 13.3182 4.64428 13.3182C4.65304 13.3182 4.6618 13.3182 4.67056 13.3182C4.67933 13.3182 4.6881 13.3182 4.69687 13.3182C4.70565 13.3182 4.71443 13.3182 4.72321 13.3182C4.73199 13.3182 4.74077 13.3182 4.74956 13.3182C4.75835 13.3182 4.76715 13.3182 4.77594 13.3182C4.78474 13.3182 4.79354 13.3182 4.80235 13.3182C4.81115 13.3182 4.81996 13.3182 4.82877 13.3182C4.83758 13.3182 4.8464 13.3182 4.85522 13.3182C4.86404 13.3182 4.87286 13.3182 4.88169 13.3182C4.89051 13.3182 4.89934 13.3182 4.90818 13.3182C4.91701 13.3182 4.92585 13.3182 4.93469 13.3182C4.94353 13.3182 4.95237 13.3182 4.96122 13.3182C4.97007 13.3182 4.97892 13.3182 4.98777 13.3182C4.99663 13.3182 5.00549 13.3182 5.01435 13.3182C5.02321 13.3182 5.03207 13.3182 5.04094 13.3182C5.04981 13.3182 5.05868 13.3182 5.06755 13.3182C5.07642 13.3182 5.0853 13.3182 5.09418 13.3182C5.10306 13.3182 5.11194 13.3182 5.12083 13.3182C5.12972 13.3182 5.1386 13.3182 5.1475 13.3182C5.15639 13.3182 5.16528 13.3182 5.17418 13.3182C5.18308 13.3182 5.19198 13.3182 5.20088 13.3182C5.20979 13.3182 5.21869 13.3182 5.2276 13.3182C5.23651 13.3182 5.24542 13.3182 5.25434 13.3182C5.26325 13.3182 5.27217 13.3182 5.28109 13.3182C5.29001 13.3182 5.29894 13.3182 5.30786 13.3182C5.31679 13.3182 5.32571 13.3182 5.33465 13.3182C5.34358 13.3182 5.35251 13.3182 5.36144 13.3182C5.37038 13.3182 5.37932 13.3182 5.38826 13.3182C5.3972 13.3182 5.40614 13.3182 5.41509 13.3182C5.42403 13.3182 5.43298 13.3182 5.44193 13.3182C5.45088 13.3182 5.45983 13.3182 5.46879 13.3182C5.47774 13.3182 5.4867 13.3182 5.49566 13.3182C5.50462 13.3182 5.51358 13.3182 5.52254 13.3182C5.53151 13.3182 5.54047 13.3182 5.54944 13.3182C5.55841 13.3182 5.56738 13.3182 5.57635 13.3182C5.58532 13.3182 5.5943 13.3182 5.60327 13.3182C5.61225 13.3182 5.62123 13.3182 5.63021 13.3182C5.63919 13.3182 5.64817 13.3182 5.65715 13.3182C5.66613 13.3182 5.67512 13.3182 5.68411 13.3182C5.69309 13.3182 5.70208 13.3182 5.71107 13.3182C5.72006 13.3182 5.72905 13.3182 5.73805 13.3182C5.74704 13.3182 5.75604 13.3182 5.76504 13.3182C5.77403 13.3182 5.78303 13.3182 5.79203 13.3182C5.80103 13.3182 5.81003 13.3182 5.81904 13.3182C5.82804 13.3182 5.83704 13.3182 5.84605 13.3182C5.85506 13.3182 5.86407 13.3182 5.87307 13.3182C5.88208 13.3182 5.89109 13.3182 5.90011 13.3182C5.90912 13.3182 5.91813 13.3182 5.92714 13.3182C5.93616 13.3182 5.94517 13.3182 5.95419 13.3182C5.96321 13.3182 5.97222 13.3182 5.98124 13.3182C5.99026 13.3182 5.99928 13.3182 6.0083 13.3182C6.01732 13.3182 6.02635 13.3182 6.03537 13.3182C6.04439 13.3182 6.05342 13.3182 6.06244 13.3182C6.07147 13.3182 6.08049 13.3182 6.08952 13.3182C6.09855 13.3182 6.10758 13.3182 6.1166 13.3182C6.12563 13.3182 6.13466 13.3182 6.14369 13.3182C6.15272 13.3182 6.16175 13.3182 6.17079 13.3182C6.17982 13.3182 6.18885 13.3182 6.19788 13.3182C6.20692 13.3182 6.21595 13.3182 6.22498 13.3182C6.23402 13.3182 6.24305 13.3182 6.25209 13.3182C6.26112 13.3182 6.27016 13.3182 6.2792 13.3182C6.28823 13.3182 6.29727 13.3182 6.30631 13.3182C6.31534 13.3182 6.32438 13.3182 6.33342 13.3182C6.34246 13.3182 6.3515 13.3182 6.36054 13.3182C6.36957 13.3182 6.37861 13.3182 6.38765 13.3182C6.39669 13.3182 6.40573 13.3182 6.41477 13.3182C6.42381 13.3182 6.43285 13.3182 6.44189 13.3182C6.45093 13.3182 6.45997 13.3182 6.46901 13.3182C6.47805 13.3182 6.48709 13.3182 6.49613 13.3182C6.50517 13.3182 6.51421 13.3182 6.52325 13.3182C6.53229 13.3182 6.54133 13.3182 6.55037 13.3182C6.55941 13.3182 6.56845 13.3182 6.57749 13.3182C6.58653 13.3182 6.59557 13.3182 6.60461 13.3182C6.61365 13.3182 6.62269 13.3182 6.63172 13.3182C6.64076 13.3182 6.6498 13.3182 6.65884 13.3182C6.66788 13.3182 6.67691 13.3182 6.68595 13.3182C6.69499 13.3182 6.70403 13.3182 6.71306 13.3182C6.7221 13.3182 6.73113 13.3182 6.74017 13.3182C6.7492 13.3182 6.75824 13.3182 6.76727 13.3182C6.77631 13.3182 6.78534 13.3182 6.79437 13.3182C6.8034 13.3182 6.81244 13.3182 6.82147 13.3182C6.8305 13.3182 6.83953 13.3182 6.84856 13.3182C6.85759 13.3182 6.86662 13.3182 6.87565 13.3182C6.88467 13.3182 6.8937 13.3182 6.90273 13.3182C6.91176 13.3182 6.92078 13.3182 6.92981 13.3182C6.93883 13.3182 6.94785 13.3182 6.95688 13.3182C6.9659 13.3182 6.97492 13.3182 6.98394 13.3182C6.99296 13.3182 7.00198 13.3182 7.011 13.3182C7.02002 13.3182 7.02903 13.3182 7.03805 13.3182C7.04707 13.3182 7.05608 13.3182 7.06509 13.3182C7.07411 13.3182 7.08312 13.3182 7.09213 13.3182C7.10114 13.3182 7.11015 13.3182 7.11916 13.3182C7.12817 13.3182 7.13717 13.3182 7.14618 13.3182C7.15518 13.3182 7.16419 13.3182 7.17319 13.3182C7.18219 13.3182 7.19119 13.3182 7.20019 13.3182C7.20919 13.3182 7.21819 13.3182 7.22719 13.3182C7.23618 13.3182 7.24518 13.3182 7.25417 13.3182C7.26316 13.3182 7.27215 13.3182 7.28114 13.3182C7.29013 13.3182 7.29912 13.3182 7.30811 13.3182C7.31709 13.3182 7.32608 13.3182 7.33506 13.3182C7.34404 13.3182 7.35302 13.3182 7.362 13.3182C7.37098 13.3182 7.37996 13.3182 7.38893 13.3182C7.39791 13.3182 7.40688 13.3182 7.41585 13.3182C7.42482 13.3182 7.43379 13.3182 7.44275 13.3182C7.45172 13.3182 7.46068 13.3182 7.46965 13.3182C7.47861 13.3182 7.48757 13.3182 7.49653 13.3182C7.50548 13.3182 7.51444 13.3182 7.52339 13.3182C7.53235 13.3182 7.5413 13.3182 7.55025 13.3182C7.5592 13.3182 7.56814 13.3182 7.57709 13.3182C7.58603 13.3182 7.59497 13.3182 7.60391 13.3182C7.61285 13.3182 7.62179 13.3182 7.63072 13.3182C7.63966 13.3182 7.64859 13.3182 7.65752 13.3182C7.66645 13.3182 7.67537 13.3182 7.6843 13.3182C7.69322 13.3182 7.70214 13.3182 7.71106 13.3182C7.71998 13.3182 7.72889 13.3182 7.73781 13.3182C7.74672 13.3182 7.75563 13.3182 7.76454 13.3182C7.77345 13.3182 7.78235 13.3182 7.79125 13.3182C7.80015 13.3182 7.80905 13.3182 7.81795 13.3182C7.82685 13.3182 7.83574 13.3182 7.84463 13.3182C7.85352 13.3182 7.86241 13.3182 7.87129 13.3182C7.88018 13.3182 7.88906 13.3182 7.89793 13.3182C7.90681 13.3182 7.91569 13.3182 7.92456 13.3182C7.93343 13.3182 7.9423 13.3182 7.95116 13.3182C7.96003 13.3182 7.96889 13.3182 7.97775 13.3182C7.98661 13.3182 7.99547 13.3182 8.00432 13.3182C8.01317 13.3182 8.02202 13.3182 8.03086 13.3182C8.03971 13.3182 8.04855 13.3182 8.05739 13.3182C8.06623 13.3182 8.07506 13.3182 8.08389 13.3182C8.09273 13.3182 8.10155 13.3182 8.11038 13.3182C8.1192 13.3182 8.12802 13.3182 8.13684 13.3182C8.14566 13.3182 8.15447 13.3182 8.16328 13.3182C8.17209 13.3182 8.1809 13.3182 8.1897 13.3182C8.1985 13.3182 8.2073 13.3182 8.2161 13.3182C8.22489 13.3182 8.23368 13.3182 8.24247 13.3182C8.25126 13.3182 8.26004 13.3182 8.26882 13.3182C8.2776 13.3182 8.28637 13.3182 8.29514 13.3182C8.30392 13.3182 8.31268 13.3182 8.32145 13.3182C8.33021 13.3182 8.33897 13.3182 8.34772 13.3182C8.35648 13.3182 8.36523 13.3182 8.37398 13.3182C8.38272 13.3182 8.39147 13.3182 8.40021 13.3182C8.40894 13.3182 8.41768 13.3182 8.42641 13.3182C8.43514 13.3182 8.44386 13.3182 8.45258 13.3182C8.46131 13.3182 8.47002 13.3182 8.47873 13.3182C8.48745 13.3182 8.49615 13.3182 8.50486 13.3182C8.51356 13.3182 8.52226 13.3182 8.53096 13.3182C8.53965 13.3182 8.54834 13.3182 8.55702 13.3182C8.56571 13.3182 8.57439 13.3182 8.58307 13.3182C8.59174 13.3182 8.60041 13.3182 8.60908 13.3182C8.61775 13.3182 8.62641 13.3182 8.63507 13.3182C8.64372 13.3182 8.65238 13.3182 8.66102 13.3182C8.66967 13.3182 8.67831 13.3182 8.68695 13.3182C8.69559 13.3182 8.70422 13.3182 8.71285 13.3182C8.72148 13.3182 8.7301 13.3182 8.73872 13.3182C8.74734 13.3182 8.75595 13.3182 8.76456 13.3182C8.77317 13.3182 8.78177 13.3182 8.79037 13.3182C8.79897 13.3182 8.80756 13.3182 8.81615 13.3182C8.82473 13.3182 8.83331 13.3182 8.84189 13.3182C8.85047 13.3182 8.85904 13.3182 8.86761 13.3182C8.87617 13.3182 8.88473 13.3182 8.89329 13.3182C8.90185 13.3182 8.9104 13.3182 8.91894 13.3182C8.92749 13.3182 8.93603 13.3182 8.94456 13.3182C8.95309 13.3182 8.96162 13.3182 8.97014 13.3182C8.97867 13.3182 8.98718 13.3182 8.9957 13.3182C9.00421 13.3182 9.01271 13.3182 9.02121 13.3182C9.02972 13.3182 9.03821 13.3182 9.0467 13.3182C9.05519 13.3182 9.06367 13.3182 9.07215 13.3182C9.08063 13.3182 9.0891 13.3182 9.09756 13.3182C9.10603 13.3182 9.11449 13.3182 9.12294 13.3182C9.1314 13.3182 9.13985 13.3182 9.14829 13.3182C9.15673 13.3182 9.16517 13.3182 9.1736 13.3182C9.18203 13.3182 9.19045 13.3182 9.19887 13.3182C9.20729 13.3182 9.2157 13.3182 9.22411 13.3182C9.23251 13.3182 9.24091 13.3182 9.24931 13.3182C9.2577 13.3182 9.26609 13.3182 9.27447 13.3182C9.28285 13.3182 9.29122 13.3182 9.29959 13.3182C9.30796 13.3182 9.31632 13.3182 9.32468 13.3182C9.33303 13.3182 9.34138 13.3182 9.34973 13.3182C9.35807 13.3182 9.36641 13.3182 9.37474 13.3182C9.38307 13.3182 9.39139 13.3182 9.39971 13.3182C9.40802 13.3182 9.41633 13.3182 9.42464 13.3182C9.43294 13.3182 9.44124 13.3182 9.44953 13.3182C9.45782 13.3182 9.4661 13.3182 9.47438 13.3182C9.48266 13.3182 9.49093 13.3182 9.49919 13.3182C9.50745 13.3182 9.51571 13.3182 9.52396 13.3182C9.53221 13.3182 9.54045 13.3182 9.54869 13.3182C9.55693 13.3182 9.56515 13.3182 9.57338 13.3182C9.5816 13.3182 9.58981 13.3182 9.59802 13.3182C9.60623 13.3182 9.61443 13.3182 9.62262 13.3182C9.63082 13.3182 9.63901 13.3182 9.64718 13.3182C9.65536 13.3182 9.66354 13.3182 9.6717 13.3182C9.67987 13.3182 9.68803 13.3182 9.69618 13.3182C9.70433 13.3182 9.71247 13.3182 9.72061 13.3182C9.72874 13.3182 9.73687 13.3182 9.74499 13.3182C9.75311 13.3182 9.76123 13.3182 9.76933 13.3182C9.77744 13.3182 9.78554 13.3182 9.79363 13.3182C9.80172 13.3182 9.80981 13.3182 9.81788 13.3182C9.82596 13.3182 9.83403 13.3182 9.84209 13.3182C9.85015 13.3182 9.85821 13.3182 9.86625 13.3182C9.8743 13.3182 9.88234 13.3182 9.89037 13.3182C9.8984 13.3182 9.90642 13.3182 9.91443 13.3182C9.92245 13.3182 9.93046 13.3182 9.93845 13.3182C9.94645 13.3182 9.95445 13.3182 9.96243 13.3182C9.97041 13.3182 9.97839 13.3182 9.98636 13.3182C9.99432 13.3182 10.0023 13.3182 10.0102 13.3182C10.0182 13.3182 10.0261 13.3182 10.0341 13.3182C10.042 13.3182 10.0499 13.3182 10.0578 13.3182C10.0658 13.3182 10.0737 13.3182 10.0816 13.3182C10.0895 13.3182 10.0974 13.3182 10.1053 13.3182C10.1131 13.3182 10.121 13.3182 10.1289 13.3182C10.1368 13.3182 10.1446 13.3182 10.1525 13.3182C10.1603 13.3182 10.1682 13.3182 10.176 13.3182C10.1838 13.3182 10.1917 13.3182 10.1995 13.3182C10.2073 13.3182 10.2151 13.3182 10.2229 13.3182C10.2307 13.3182 10.2385 13.3182 10.2463 13.3182C10.2541 13.3182 10.2619 13.3182 10.2696 13.3182C10.2774 13.3182 10.2852 13.3182 10.2929 13.3182C10.3006 13.3182 10.3084 13.3182 10.3161 13.3182C10.3239 13.3182 10.3316 13.3182 10.3393 13.3182C10.347 13.3182 10.3547 13.3182 10.3624 13.3182C10.3701 13.3182 10.3778 13.3182 10.3855 13.3182C10.3931 13.3182 10.4008 13.3182 10.4085 13.3182C10.4161 13.3182 10.4238 13.3182 10.4314 13.3182C10.4391 13.3182 10.4467 13.3182 10.4543 13.3182C10.462 13.3182 10.4696 13.3182 10.4772 13.3182C10.4848 13.3182 10.4924 13.3182 10.5 13.3182C10.5075 13.3182 10.5151 13.3182 10.5227 13.3182C10.5303 13.3182 10.5378 13.3182 10.5454 13.3182C10.5529 13.3182 10.5605 13.3182 10.568 13.3182C10.5755 13.3182 10.583 13.3182 10.5906 13.3182C10.5981 13.3182 10.6056 13.3182 10.6131 13.3182C10.6205 13.3182 10.628 13.3182 10.6355 13.3182C10.643 13.3182 10.6504 13.3182 10.6579 13.3182C10.6653 13.3182 10.6728 13.3182 10.6802 13.3182C10.6877 13.3182 10.6951 13.3182 10.7025 13.3182C10.7099 13.3182 10.7173 13.3182 10.7247 13.3182C10.7321 13.3182 10.7395 13.3182 10.7469 13.3182C10.7542 13.3182 10.7616 13.3182 10.769 13.3182C10.7763 13.3182 10.7837 13.3182 10.791 13.3182C10.7983 13.3182 10.8057 13.3182 10.813 13.3182C10.8203 13.3182 10.8276 13.3182 10.8349 13.3182C10.8422 13.3182 10.8495 13.3182 10.8567 13.3182C10.864 13.3182 10.8713 13.3182 10.8785 13.3182C10.8858 13.3182 10.893 13.3182 10.9003 13.3182C10.9075 13.3182 10.9147 13.3182 10.9219 13.3182C10.9291 13.3182 10.9363 13.3182 10.9435 13.3182C10.9507 13.3182 10.9579 13.3182 10.9651 13.3182C10.9722 13.3182 10.9794 13.3182 10.9865 13.3182C10.9937 13.3182 11.0008 13.3182 11.008 13.3182C11.0151 13.3182 11.0222 13.3182 11.0293 13.3182C11.0364 13.3182 11.0435 13.3182 11.0506 13.3182C11.0577 13.3182 11.0647 13.3182 11.0718 13.3182C11.0789 13.3182 11.0859 13.3182 11.093 13.3182C11.1 13.3182 11.107 13.3182 11.114 13.3182C11.1211 13.3182 11.1281 13.3182 11.1351 13.3182C11.1421 13.3182 11.1491 13.3182 11.156 13.3182C11.163 13.3182 11.17 13.3182 11.1769 13.3182C11.1839 13.3182 11.1908 13.3182 11.1977 13.3182C11.2047 13.3182 11.2116 13.3182 11.2185 13.3182C11.2254 13.3182 11.2323 13.3182 11.2392 13.3182C11.2461 13.3182 11.2529 13.3182 11.2598 13.3182C11.2667 13.3182 11.2735 13.3182 11.2804 13.3182C11.2872 13.3182 11.294 13.3182 11.3008 13.3182C11.3077 13.3182 11.3145 13.3182 11.3213 13.3182C11.3281 13.3182 11.3348 13.3182 11.3416 13.3182C11.3484 13.3182 11.3551 13.3182 11.3619 13.3182C11.3686 13.3182 11.3754 13.3182 11.3821 13.3182C11.3888 13.3182 11.3955 13.3182 11.4022 13.3182C11.4089 13.3182 11.4156 13.3182 11.4223 13.3182C11.429 13.3182 11.4356 13.3182 11.4423 13.3182C11.4489 13.3182 11.4556 13.3182 11.4622 13.3182C11.4688 13.3182 11.4754 13.3182 11.482 13.3182C11.4887 13.3182 11.4952 13.3182 11.5018 13.3182C11.5084 13.3182 11.515 13.3182 11.5215 13.3182C11.5281 13.3182 11.5346 13.3182 11.5412 13.3182C11.5477 13.3182 11.5542 13.3182 11.5607 13.3182C11.5672 13.3182 11.5737 13.3182 11.5802 13.3182C11.5867 13.3182 11.5932 13.3182 11.5996 13.3182C11.6061 13.3182 11.6125 13.3182 11.6189 13.3182C11.6254 13.3182 11.6318 13.3182 11.6382 13.3182C11.6446 13.3182 11.651 13.3182 11.6574 13.3182C11.6638 13.3182 11.6701 13.3182 11.6765 13.3182C11.6829 13.3182 11.6892 13.3182 11.6955 13.3182C11.7019 13.3182 11.7082 13.3182 11.7145 13.3182C11.7208 13.3182 11.7271 13.3182 11.7334 13.3182C11.7397 13.3182 11.7459 13.3182 11.7522 13.3182C11.7584 13.3182 11.7647 13.3182 11.7709 13.3182C11.7771 13.3182 11.7834 13.3182 11.7896 13.3182C11.7958 13.3182 11.802 13.3182 11.8081 13.3182C11.8143 13.3182 11.8205 13.3182 11.8266 13.3182C11.8328 13.3182 11.8389 13.3182 11.845 13.3182C11.8512 13.3182 11.8573 13.3182 11.8634 13.3182C11.8695 13.3182 11.8756 13.3182 11.8816 13.3182C11.8877 13.3182 11.8938 13.3182 11.8998 13.3182C11.9059 13.3182 11.9119 13.3182 11.9179 13.3182C11.9239 13.3182 11.9299 13.3182 11.9359 13.3182C11.9419 13.3182 11.9479 13.3182 11.9539 13.3182C11.9598 13.3182 11.9658 13.3182 11.9717 13.3182C11.9776 13.3182 11.9836 13.3182 11.9895 13.3182C11.9954 13.3182 12.0013 13.3182 12.0072 13.3182C12.0131 13.3182 12.0189 13.3182 12.0248 13.3182C12.0306 13.3182 12.0365 13.3182 12.0423 13.3182C12.0481 13.3182 12.0539 13.3182 12.0597 13.3182C12.0655 13.3182 12.0713 13.3182 12.0771 13.3182C12.0829 13.3182 12.0886 13.3182 12.0944 13.3182C12.1001 13.3182 12.1058 13.3182 12.1116 13.3182C12.1173 13.3182 12.123 13.3182 12.1287 13.3182C12.1344 13.3182 12.14 13.3182 12.1457 13.3182C12.1514 13.3182 12.157 13.3182 12.1626 13.3182C12.1683 13.3182 12.1739 13.3182 12.1795 13.3182C12.1851 13.3182 12.1907 13.3182 12.1962 13.3182C12.2018 13.3182 12.2074 13.3182 12.2129 13.3182C12.2185 13.3182 12.224 13.3182 12.2295 13.3182C12.235 13.3182 12.2405 13.3182 12.246 13.3182C12.2515 13.3182 12.257 13.3182 12.2624 13.3182C12.2679 13.3182 12.2733 13.3182 12.2788 13.3182C12.2842 13.3182 12.2896 13.3182 12.295 13.3182C12.3004 13.3182 12.3058 13.3182 12.3112 13.3182C12.3165 13.3182 12.3219 13.3182 12.3272 13.3182C12.3326 13.3182 12.3379 13.3182 12.3432 13.3182C12.3485 13.3182 12.3538 13.3182 12.3591 13.3182C12.3644 13.3182 12.3696 13.3182 12.3749 13.3182C12.3801 13.3182 12.3854 13.3182 12.3906 13.3182C12.3958 13.3182 12.401 13.3182 12.4062 13.3182C12.4114 13.3182 12.4166 13.3182 12.4217 13.3182C12.4269 13.3182 12.432 13.3182 12.4372 13.3182C12.4423 13.3182 12.4474 13.3182 12.4525 13.3182C12.4576 13.3182 12.4627 13.3182 12.4678 13.3182C12.4728 13.3182 12.4779 13.3182 12.4829 13.3182C12.488 13.3182 12.493 13.3182 12.498 13.3182C12.503 13.3182 12.508 13.3182 12.513 13.3182C12.5179 13.3182 12.5229 13.3182 12.5278 13.3182C12.5328 13.3182 12.5377 13.3182 12.5426 13.3182C12.5475 13.3182 12.5524 13.3182 12.5573 13.3182C12.5622 13.3182 12.5671 13.3182 12.5719 13.3182C12.5768 13.3182 12.5816 13.3182 12.5864 13.3182C12.5912 13.3182 12.596 13.3182 12.6008 13.3182C12.6056 13.3182 12.6104 13.3182 12.6151 13.3182C12.6199 13.3182 12.6246 13.3182 12.6293 13.3182C12.6341 13.3182 12.6388 13.3182 12.6435 13.3182C12.6481 13.3182 12.6528 13.3182 12.6575 13.3182C12.6621 13.3182 12.6668 13.3182 12.6714 13.3182C12.676 13.3182 12.6806 13.3182 12.6852 13.3182C12.6898 13.3182 12.6944 13.3182 12.699 13.3182C12.7035 13.3182 12.7081 13.3182 12.7126 13.3182C12.7171 13.3182 12.7216 13.3182 12.7261 13.3182C12.7306 13.3182 12.7351 13.3182 12.7396 13.3182C12.744 13.3182 12.7485 13.3182 12.7529 13.3182C12.7573 13.3182 12.7617 13.3182 12.7661 13.3182C12.7705 13.3182 12.7749 13.3182 12.7793 13.3182C12.7836 13.3182 12.788 13.3182 12.7923 13.3182C12.7966 13.3182 12.8009 13.3182 12.8052 13.3182C12.8095 13.3182 12.8138 13.3182 12.8181 13.3182L12.8181 12.3182Z" fill="#797979"/>
</svg>
