<svg width="15" height="15" viewBox="0 0 15 15" fill="none" xmlns="http://www.w3.org/2000/svg">
<path d="M7.5 0C7.78408 0 8.04377 0.168065 8.17082 0.434125L10.105 4.48476L14.3579 5.13252C14.6404 5.17555 14.8751 5.38274 14.9633 5.66701C15.0515 5.95128 14.9779 6.26333 14.7736 6.47199L11.6782 9.63216L12.3745 14.0878C12.4205 14.3823 12.3032 14.6786 12.0717 14.8526C11.8402 15.0266 11.5345 15.0482 11.2828 14.9084L7.5 12.8066L3.71717 14.9084C3.46545 15.0482 3.15978 15.0266 2.92829 14.8526C2.69679 14.6786 2.57947 14.3823 2.62548 14.0878L3.32178 9.63216L0.226446 6.47199C0.0220675 6.26333 -0.0514776 5.95128 0.0367271 5.66701C0.124932 5.38274 0.359593 5.17555 0.642065 5.13252L4.89501 4.48476L6.82918 0.434125C6.95623 0.168065 7.21592 0 7.5 0ZM7.5 2.54141L6.06145 5.55409C5.95169 5.78396 5.74146 5.94305 5.49859 5.98004L2.36131 6.45788L4.64858 8.79306C4.82385 8.972 4.90469 9.22923 4.86516 9.48219L4.35001 12.7787L7.14846 11.2238C7.36831 11.1017 7.63169 11.1017 7.85154 11.2238L10.65 12.7787L10.1348 9.48219C10.0953 9.22923 10.1762 8.972 10.3514 8.79306L12.6387 6.45788L9.50141 5.98004C9.25854 5.94305 9.04831 5.78396 8.93855 5.55409L7.5 2.54141Z" fill="#DD7F29"/>
</svg>
