<svg width="20" height="22" viewBox="0 0 20 22" fill="none" xmlns="http://www.w3.org/2000/svg">
<path d="M15.5658 0.278809C16.6302 0.278809 17.5614 0.70454 18.2533 1.36975C18.9451 2.06156 19.3708 3.01945 19.3708 4.05717C19.3708 5.09489 18.9451 6.05279 18.2532 6.7446C17.5614 7.43642 16.6035 7.86215 15.5658 7.86215C14.5813 7.86215 13.6766 7.46303 12.9848 6.85104L7.55673 10.3367C7.55673 10.4431 7.58334 10.5496 7.58334 10.6826C7.58334 11.0551 7.53013 11.401 7.42369 11.7469L12.7187 15.0464C13.3573 14.5408 14.1556 14.2481 15.0336 14.2481C16.0714 14.2481 17.0293 14.6739 17.6945 15.3657C18.3863 16.0575 18.812 16.9888 18.812 18.0531C18.812 19.0908 18.3863 20.0487 17.6945 20.7139L17.6945 20.7405C17.0293 21.4057 16.0714 21.8315 15.0336 21.8315C13.9693 21.8315 13.038 21.4057 12.3462 20.7405C11.6544 20.0487 11.2287 19.0908 11.2287 18.0531C11.2287 17.5475 11.3351 17.0686 11.4947 16.6429L6.35936 13.4499C5.69415 14.0885 4.78947 14.461 3.77836 14.461C2.74064 14.461 1.78274 14.0353 1.09093 13.37C0.399115 12.6782 -7.59905e-06 11.7203 -6.90984e-06 10.6826C-6.22062e-06 9.6449 0.399118 8.687 1.09093 7.99519C1.78275 7.30338 2.74064 6.87765 3.77837 6.87765C4.81609 6.87765 5.77398 7.30338 6.4658 7.99519C6.59884 8.12823 6.73188 8.28788 6.83831 8.42092L11.9471 5.14811C11.8407 4.8022 11.7874 4.42969 11.7874 4.05717C11.7874 3.01945 12.2132 2.06156 12.8784 1.36975H12.905C13.5702 0.677932 14.5281 0.278809 15.5658 0.278809ZM16.2842 16.7759C15.9649 16.4566 15.5126 16.2437 15.0336 16.2437C14.5281 16.2437 14.0757 16.4566 13.7565 16.7759C13.4372 17.0952 13.2243 17.5475 13.2243 18.0531C13.2243 18.532 13.4371 18.9844 13.7564 19.3303C14.0757 19.6496 14.5281 19.8358 15.0336 19.8358C15.5126 19.8358 15.9649 19.6496 16.3108 19.3303C16.6301 18.9844 16.8164 18.532 16.8164 18.0531C16.8164 17.5475 16.6301 17.0952 16.2842 16.7759ZM5.05556 9.40543C4.73626 9.08613 4.28392 8.87326 3.77836 8.87326C3.27281 8.87326 2.82047 9.08613 2.50117 9.40543C2.18187 9.72472 1.99561 10.1771 1.99561 10.6826C1.99561 11.1616 2.18187 11.6139 2.50117 11.9598C2.82047 12.2791 3.27281 12.4654 3.77836 12.4654C4.28392 12.4654 4.73626 12.2791 5.05556 11.9598C5.37486 11.6139 5.58772 11.1616 5.58772 10.6826C5.58772 10.1771 5.37486 9.72472 5.05556 9.40543ZM16.843 2.77998C16.5237 2.46068 16.0714 2.27442 15.5658 2.27442C15.0603 2.27442 14.6345 2.46068 14.2886 2.77998C13.9693 3.09928 13.7831 3.55162 13.7831 4.05717C13.7831 4.56273 13.9693 5.01507 14.2886 5.33437C14.6345 5.65367 15.0869 5.86653 15.5658 5.86653C16.0714 5.86653 16.5237 5.65367 16.843 5.33437C17.1623 5.01507 17.3752 4.56273 17.3752 4.05717C17.3752 3.55162 17.1623 3.12589 16.843 2.77998Z" fill="#797979"/>
</svg>
