<svg width="13" height="17" viewBox="0 0 13 17" fill="none" xmlns="http://www.w3.org/2000/svg">
<path d="M12.5954 6.12912H12.1954V6.13847L12.1958 6.14782L12.5954 6.12912ZM7.47061 16.082L7.78944 16.3235L7.78952 16.3234L7.47061 16.082ZM6.12939 16.082L5.81026 16.3231L5.81056 16.3235L6.12939 16.082ZM1.00461 6.12912L1.40417 6.14788L1.40461 6.1385V6.12912H1.00461ZM10.9396 6.20003H10.5396V6.21197L10.5403 6.2239L10.9396 6.20003ZM6.80002 14.2857L6.47746 14.5223L6.79875 14.9604L7.12169 14.5235L6.80002 14.2857ZM2.66046 6.17629L3.05975 6.20017L3.06046 6.18824V6.17629H2.66046ZM12.9954 6.12912C12.9954 2.83265 10.2043 0.190973 6.8 0.190973V0.990973C9.7971 0.990973 12.1954 3.30832 12.1954 6.12912H12.9954ZM7.78952 16.3234C9.37332 14.2314 10.6986 12.3427 11.6139 10.6587C12.525 8.98239 13.0581 7.45942 12.9949 6.11041L12.1958 6.14782C12.2486 7.27516 11.8006 8.63993 10.911 10.2766C10.0256 11.9056 8.73052 13.7551 7.1517 15.8405L7.78952 16.3234ZM6.8 16.8092C7.18636 16.8092 7.55552 16.6323 7.78944 16.3235L7.15178 15.8404C7.07429 15.9427 6.94466 16.0092 6.8 16.0092V16.8092ZM5.81056 16.3235C6.04448 16.6323 6.41364 16.8092 6.8 16.8092V16.0092C6.65534 16.0092 6.5257 15.9427 6.44822 15.8404L5.81056 16.3235ZM0.605053 6.11035C0.541886 7.45561 1.07515 8.97673 1.98611 10.6527C2.90136 12.3366 4.22653 14.2273 5.81026 16.3231L6.44852 15.8408C4.86963 13.7514 3.57446 11.8998 2.68899 10.2707C1.79925 8.63372 1.35143 7.27105 1.40417 6.14788L0.605053 6.11035ZM6.8 0.190973C3.39569 0.190973 0.604613 2.83265 0.604613 6.12912H1.40461C1.40461 3.30832 3.8029 0.990973 6.8 0.990973V0.190973ZM10.5403 6.2239C10.5909 7.06939 10.1624 8.2546 9.39175 9.65548C8.63183 11.0369 7.58073 12.5566 6.47836 14.048L7.12169 14.5235C8.22984 13.0243 9.30648 11.4703 10.0927 10.0411C10.8682 8.63135 11.4042 7.26901 11.3389 6.17615L10.5403 6.2239ZM10.5396 6.17629V6.20003H11.3396V6.17629H10.5396ZM10.5396 6.12882V6.17629H11.3396V6.12882H10.5396ZM6.80002 2.573C8.88264 2.573 10.5396 4.18192 10.5396 6.12882H11.3396C11.3396 3.70625 9.28985 1.773 6.80002 1.773V2.573ZM3.06046 6.12882C3.06046 4.18192 4.71741 2.573 6.80002 2.573V1.773C4.3102 1.773 2.26046 3.70625 2.26046 6.12882H3.06046ZM3.06046 6.17629V6.12882H2.26046V6.17629H3.06046ZM7.12259 14.0492C6.01983 12.5454 4.96857 11.0197 4.20847 9.63503C3.43768 8.23089 3.00919 7.04571 3.05975 6.20017L2.26118 6.15241C2.19583 7.24522 2.73186 8.60758 3.50719 10.02C4.29322 11.4519 5.36969 13.0117 6.47746 14.5223L7.12259 14.0492ZM4.71641 6.1295C4.71641 5.05649 5.63202 4.15601 6.80014 4.15601V3.35601C5.22481 3.35601 3.91641 4.58083 3.91641 6.1295H4.71641ZM6.80014 8.10299C5.63202 8.10299 4.71641 7.20251 4.71641 6.1295H3.91641C3.91641 7.67818 5.22481 8.90299 6.80014 8.90299V8.10299ZM8.88388 6.1295C8.88388 7.20251 7.96827 8.10299 6.80014 8.10299V8.90299C8.37548 8.90299 9.68388 7.67818 9.68388 6.1295H8.88388ZM8.28006 4.74038C8.66897 5.11203 8.88388 5.61211 8.88388 6.1295H9.68388C9.68388 5.38792 9.37543 4.68059 8.83276 4.162L8.28006 4.74038ZM6.80014 4.15601C7.3585 4.15601 7.89053 4.36814 8.28006 4.74038L8.83276 4.162C8.29071 3.64401 7.55925 3.35601 6.80014 3.35601V4.15601ZM6.80002 6.52028C6.54638 6.52028 6.37211 6.32823 6.37211 6.12912H5.57211C5.57211 6.8039 6.13917 7.32028 6.80002 7.32028V6.52028ZM7.22793 6.12912C7.22793 6.32823 7.05366 6.52028 6.80002 6.52028V7.32028C7.46087 7.32028 8.02793 6.8039 8.02793 6.12912H7.22793ZM6.80002 5.73795C7.05366 5.73795 7.22793 5.93 7.22793 6.12912H8.02793C8.02793 5.45433 7.46087 4.93795 6.80002 4.93795V5.73795ZM6.37211 6.12912C6.37211 5.93 6.54638 5.73795 6.80002 5.73795V4.93795C6.13917 4.93795 5.57211 5.45433 5.57211 6.12912H6.37211Z" fill="#05B1A1"/>
</svg>
